<?xml version="1.0" encoding="UTF-8" standalone="no"?>
<!-- Created with Inkscape (http://www.inkscape.org/) -->

<svg
   version="1.1"
   id="svg1"
   width="614.40002"
   height="460.79999"
   viewBox="0 0 614.40002 460.79999"
   sodipodi:docname="persistence.svg"
   inkscape:version="1.3 (0e150ed, 2023-07-21)"
   xmlns:inkscape="http://www.inkscape.org/namespaces/inkscape"
   xmlns:sodipodi="http://sodipodi.sourceforge.net/DTD/sodipodi-0.dtd"
   xmlns="http://www.w3.org/2000/svg"
   xmlns:svg="http://www.w3.org/2000/svg">
  <defs
     id="defs1">
    <clipPath
       clipPathUnits="userSpaceOnUse"
       id="clipPath22">
      <path
         d="M 43.67,40.52 H 450 V 331.87289 H 43.67 Z"
         id="path22" />
    </clipPath>
    <clipPath
       clipPathUnits="userSpaceOnUse"
       id="clipPath24">
      <path
         d="M 43.67,40.52 H 450 V 331.87289 H 43.67 Z"
         id="path24" />
    </clipPath>
    <clipPath
       clipPathUnits="userSpaceOnUse"
       id="clipPath26">
      <path
         d="M 43.67,40.52 H 450 V 331.87289 H 43.67 Z"
         id="path26" />
    </clipPath>
    <clipPath
       clipPathUnits="userSpaceOnUse"
       id="clipPath28">
      <path
         d="M 43.67,40.52 H 450 V 331.87289 H 43.67 Z"
         id="path28" />
    </clipPath>
  </defs>
  <sodipodi:namedview
     id="namedview1"
     pagecolor="#ffffff"
     bordercolor="#000000"
     borderopacity="0.25"
     inkscape:showpageshadow="2"
     inkscape:pageopacity="0.0"
     inkscape:pagecheckerboard="0"
     inkscape:deskcolor="#d1d1d1"
     inkscape:zoom="1.2646927"
     inkscape:cx="307.5846"
     inkscape:cy="230.49078"
     inkscape:window-width="1408"
     inkscape:window-height="854"
     inkscape:window-x="0"
     inkscape:window-y="25"
     inkscape:window-maximized="0"
     inkscape:current-layer="g1">
    <inkscape:page
       x="0"
       y="0"
       inkscape:label="1"
       id="page1"
       width="614.40002"
       height="460.79999"
       margin="0"
       bleed="0" />
  </sodipodi:namedview>
  <g
     id="g1"
     inkscape:groupmode="layer"
     inkscape:label="1">
    <path
       id="path1"
       d="M 0,0 H 460.8 V 345.6 H 0 Z"
       style="fill:#ffffff;fill-opacity:1;fill-rule:nonzero;stroke:none"
       transform="matrix(1.3333333,0,0,-1.3333333,0,460.8)" />
    <path
       id="path2"
       d="M 43.67,40.52 H 450 V 331.87289 H 43.67 Z"
       style="fill:#ffffff;fill-opacity:1;fill-rule:nonzero;stroke:none"
       transform="matrix(1.3333333,0,0,-1.3333333,0,460.8)" />
    <path
       id="path3"
       d="m 62.139545,40.52 v -3.5"
       style="fill:#000000;fill-opacity:1;fill-rule:nonzero;stroke:#000000;stroke-width:0.8;stroke-linecap:butt;stroke-linejoin:round;stroke-miterlimit:10;stroke-dasharray:none;stroke-opacity:1"
       transform="matrix(1.3333333,0,0,-1.3333333,0,460.8)" />
    <text
       id="text3"
       xml:space="preserve"
       transform="matrix(1.3333333,0,0,1.3333333,79.519394,425.35667)"
       style="-inkscape-font-specification:'Times New Roman, ';font-family:'Times New Roman';font-weight:normal;font-style:normal;font-stretch:normal;font-variant:normal;font-size:11.00000028px"><tspan
         style="font-variant:normal;font-weight:normal;font-family:'Times New Roman';writing-mode:lr-tb;fill:#000000;fill-opacity:1;fill-rule:nonzero;stroke:none;-inkscape-font-specification:'Times New Roman, ';font-style:normal;font-stretch:normal;font-size:11.00000028px"
         x="0"
         y="0"
         id="tspan3">0</tspan></text>
    <path
       id="path4"
       d="m 111.4048,40.52 v -3.5"
       style="fill:#000000;fill-opacity:1;fill-rule:nonzero;stroke:#000000;stroke-width:0.8;stroke-linecap:butt;stroke-linejoin:round;stroke-miterlimit:10;stroke-dasharray:none;stroke-opacity:1"
       transform="matrix(1.3333333,0,0,-1.3333333,0,460.8)" />
    <text
       id="text4"
       xml:space="preserve"
       transform="matrix(1.3333333,0,0,1.3333333,138.53974,425.35667)"
       style="-inkscape-font-specification:'Times New Roman, ';font-family:'Times New Roman';font-weight:normal;font-style:normal;font-stretch:normal;font-variant:normal;font-size:11.00000028px"><tspan
         style="font-variant:normal;font-weight:normal;font-family:'Times New Roman';writing-mode:lr-tb;fill:#000000;fill-opacity:1;fill-rule:nonzero;stroke:none;-inkscape-font-specification:'Times New Roman, ';font-style:normal;font-stretch:normal;font-size:11.00000028px"
         x="0 5 10"
         y="0"
         sodipodi:role="line"
         id="tspan4">100</tspan></text>
    <path
       id="path5"
       d="m 160.67006,40.52 v -3.5"
       style="fill:#000000;fill-opacity:1;fill-rule:nonzero;stroke:#000000;stroke-width:0.8;stroke-linecap:butt;stroke-linejoin:round;stroke-miterlimit:10;stroke-dasharray:none;stroke-opacity:1"
       transform="matrix(1.3333333,0,0,-1.3333333,0,460.8)" />
    <text
       id="text5"
       xml:space="preserve"
       transform="matrix(1.3333333,0,0,1.3333333,204.22675,425.35667)"
       style="-inkscape-font-specification:'Times New Roman, ';font-family:'Times New Roman';font-weight:normal;font-style:normal;font-stretch:normal;font-variant:normal;font-size:11.00000028px"><tspan
         style="font-variant:normal;font-weight:normal;font-family:'Times New Roman';writing-mode:lr-tb;fill:#000000;fill-opacity:1;fill-rule:nonzero;stroke:none;-inkscape-font-specification:'Times New Roman, ';font-style:normal;font-stretch:normal;font-size:11.00000028px"
         x="0 5 10"
         y="0"
         sodipodi:role="line"
         id="tspan5">200</tspan></text>
    <path
       id="path6"
       d="m 209.93532,40.52 v -3.5"
       style="fill:#000000;fill-opacity:1;fill-rule:nonzero;stroke:#000000;stroke-width:0.8;stroke-linecap:butt;stroke-linejoin:round;stroke-miterlimit:10;stroke-dasharray:none;stroke-opacity:1"
       transform="matrix(1.3333333,0,0,-1.3333333,0,460.8)" />
    <text
       id="text6"
       xml:space="preserve"
       transform="matrix(1.3333333,0,0,1.3333333,269.91376,425.35667)"
       style="-inkscape-font-specification:'Times New Roman, ';font-family:'Times New Roman';font-weight:normal;font-style:normal;font-stretch:normal;font-variant:normal;font-size:11.00000028px"><tspan
         style="font-variant:normal;font-weight:normal;font-family:'Times New Roman';writing-mode:lr-tb;fill:#000000;fill-opacity:1;fill-rule:nonzero;stroke:none;-inkscape-font-specification:'Times New Roman, ';font-style:normal;font-stretch:normal;font-size:11.00000028px"
         x="0 5 10"
         y="0"
         sodipodi:role="line"
         id="tspan6">300</tspan></text>
    <path
       id="path7"
       d="m 259.20058,40.52 v -3.5"
       style="fill:#000000;fill-opacity:1;fill-rule:nonzero;stroke:#000000;stroke-width:0.8;stroke-linecap:butt;stroke-linejoin:round;stroke-miterlimit:10;stroke-dasharray:none;stroke-opacity:1"
       transform="matrix(1.3333333,0,0,-1.3333333,0,460.8)" />
    <text
       id="text7"
       xml:space="preserve"
       transform="matrix(1.3333333,0,0,1.3333333,335.60077,425.35667)"
       style="font-size:11.00000028px;-inkscape-font-specification:'Times New Roman, ';font-family:'Times New Roman';font-weight:normal;font-style:normal;font-stretch:normal;font-variant:normal"><tspan
         style="font-variant:normal;font-weight:normal;font-family:'Times New Roman';writing-mode:lr-tb;fill:#000000;fill-opacity:1;fill-rule:nonzero;stroke:none;font-size:11.00000028px;-inkscape-font-specification:'Times New Roman, ';font-style:normal;font-stretch:normal"
         x="0 5 10"
         y="0"
         sodipodi:role="line"
         id="tspan7">400</tspan></text>
    <path
       id="path8"
       d="m 308.46584,40.52 v -3.5"
       style="fill:#000000;fill-opacity:1;fill-rule:nonzero;stroke:#000000;stroke-width:0.8;stroke-linecap:butt;stroke-linejoin:round;stroke-miterlimit:10;stroke-dasharray:none;stroke-opacity:1"
       transform="matrix(1.3333333,0,0,-1.3333333,0,460.8)" />
    <text
       id="text8"
       xml:space="preserve"
       transform="matrix(1.3333333,0,0,1.3333333,401.28778,425.35667)"
       style="-inkscape-font-specification:'Times New Roman, ';font-family:'Times New Roman';font-weight:normal;font-style:normal;font-stretch:normal;font-variant:normal;font-size:11.00000028px"><tspan
         style="font-variant:normal;font-weight:normal;font-family:'Times New Roman';writing-mode:lr-tb;fill:#000000;fill-opacity:1;fill-rule:nonzero;stroke:none;-inkscape-font-specification:'Times New Roman, ';font-style:normal;font-stretch:normal;font-size:11.00000028px"
         x="0 5 10"
         y="0"
         sodipodi:role="line"
         id="tspan8">500</tspan></text>
    <path
       id="path9"
       d="m 357.7311,40.52 v -3.5"
       style="fill:#000000;fill-opacity:1;fill-rule:nonzero;stroke:#000000;stroke-width:0.8;stroke-linecap:butt;stroke-linejoin:round;stroke-miterlimit:10;stroke-dasharray:none;stroke-opacity:1"
       transform="matrix(1.3333333,0,0,-1.3333333,0,460.8)" />
    <text
       id="text9"
       xml:space="preserve"
       transform="matrix(1.3333333,0,0,1.3333333,466.9748,425.35667)"
       style="font-size:11.00000028px;-inkscape-font-specification:'Times New Roman, ';font-family:'Times New Roman';font-weight:normal;font-style:normal;font-stretch:normal;font-variant:normal"><tspan
         style="font-variant:normal;font-weight:normal;font-family:'Times New Roman';writing-mode:lr-tb;fill:#000000;fill-opacity:1;fill-rule:nonzero;stroke:none;font-size:11.00000028px;-inkscape-font-specification:'Times New Roman, ';font-style:normal;font-stretch:normal"
         x="0 5 10"
         y="0"
         sodipodi:role="line"
         id="tspan9">600</tspan></text>
    <path
       id="path10"
       d="m 406.99636,40.52 v -3.5"
       style="fill:#000000;fill-opacity:1;fill-rule:nonzero;stroke:#000000;stroke-width:0.8;stroke-linecap:butt;stroke-linejoin:round;stroke-miterlimit:10;stroke-dasharray:none;stroke-opacity:1"
       transform="matrix(1.3333333,0,0,-1.3333333,0,460.8)" />
    <text
       id="text10"
       xml:space="preserve"
       transform="matrix(1.3333333,0,0,1.3333333,532.66181,425.35667)"
       style="-inkscape-font-specification:'Times New Roman, ';font-family:'Times New Roman';font-weight:normal;font-style:normal;font-stretch:normal;font-variant:normal;font-size:11.00000028px"><tspan
         style="font-variant:normal;font-weight:normal;font-family:'Times New Roman';writing-mode:lr-tb;fill:#000000;fill-opacity:1;fill-rule:nonzero;stroke:none;-inkscape-font-specification:'Times New Roman, ';font-style:normal;font-stretch:normal;font-size:11.00000028px"
         x="0 5 10"
         y="0"
         sodipodi:role="line"
         id="tspan10">700</tspan></text>
    <text
       id="text11"
       xml:space="preserve"
       transform="matrix(1.3333333,0,0,1.3333333,315.29042,442.79417)"
       style="-inkscape-font-specification:'Times New Roman, ';font-family:'Times New Roman';font-weight:normal;font-style:normal;font-stretch:normal;font-variant:normal;font-size:11.00000028px"><tspan
         style="font-variant:normal;font-weight:normal;font-family:'Times New Roman';writing-mode:lr-tb;fill:#000000;fill-opacity:1;fill-rule:nonzero;stroke:none;-inkscape-font-specification:'Times New Roman, ';font-style:normal;font-stretch:normal;font-size:11.00000028px"
         x="0 5.7662501 8.5462503 16.32625"
         y="0"
         sodipodi:role="line"
         id="tspan11">Time</tspan></text>
    <text
       id="text11-0"
       xml:space="preserve"
       style="font-style:normal;font-variant:normal;font-weight:normal;font-stretch:normal;font-size:14.6667px;font-family:'Times New Roman';-inkscape-font-specification:'Times New Roman, ';stroke-width:1.33333"
       x="-315.85803"
       y="22.700918"
       transform="rotate(-90)"><tspan
         style="font-style:normal;font-variant:normal;font-weight:normal;font-stretch:normal;font-size:14.6667px;font-family:'Times New Roman';-inkscape-font-specification:'Times New Roman, ';writing-mode:lr-tb;fill:#000000;fill-opacity:1;fill-rule:nonzero;stroke:none;stroke-width:1.33333"
         x="-315.85803"
         y="22.700918"
         sodipodi:role="line"
         id="tspan11-4">Average basals - non-extinct infections</tspan></text>
    <path
       id="path11"
       d="m 43.67,53.746667 h -3.5"
       style="fill:#000000;fill-opacity:1;fill-rule:nonzero;stroke:#000000;stroke-width:0.8;stroke-linecap:butt;stroke-linejoin:round;stroke-miterlimit:10;stroke-dasharray:none;stroke-opacity:1"
       transform="matrix(1.3333333,0,0,-1.3333333,0,460.8)" />
    <text
       id="text12"
       xml:space="preserve"
       transform="matrix(1.3333333,0,0,1.3333333,32.226667,393.76278)"
       style="-inkscape-font-specification:'Times New Roman, ';font-family:'Times New Roman';font-weight:normal;font-style:normal;font-stretch:normal;font-variant:normal;font-size:11.00000028px"><tspan
         style="font-variant:normal;font-weight:normal;font-family:'Times New Roman';writing-mode:lr-tb;fill:#000000;fill-opacity:1;fill-rule:nonzero;stroke:none;-inkscape-font-specification:'Times New Roman, ';font-style:normal;font-stretch:normal;font-size:11.00000028px"
         x="0 5 7.5"
         y="0"
         sodipodi:role="line"
         id="tspan12">1.0</tspan></text>
    <path
       id="path12"
       d="m 43.67,88.420356 h -3.5"
       style="fill:#000000;fill-opacity:1;fill-rule:nonzero;stroke:#000000;stroke-width:0.8;stroke-linecap:butt;stroke-linejoin:round;stroke-miterlimit:10;stroke-dasharray:none;stroke-opacity:1"
       transform="matrix(1.3333333,0,0,-1.3333333,0,460.8)" />
    <text
       id="text13"
       xml:space="preserve"
       transform="matrix(1.3333333,0,0,1.3333333,32.226667,347.53119)"
       style="-inkscape-font-specification:'Times New Roman, ';font-family:'Times New Roman';font-weight:normal;font-style:normal;font-stretch:normal;font-variant:normal;font-size:11.00000028px"><tspan
         style="font-variant:normal;font-weight:normal;font-family:'Times New Roman';writing-mode:lr-tb;fill:#000000;fill-opacity:1;fill-rule:nonzero;stroke:none;-inkscape-font-specification:'Times New Roman, ';font-style:normal;font-stretch:normal;font-size:11.00000028px"
         x="0 5 7.5"
         y="0"
         sodipodi:role="line"
         id="tspan13">1.5</tspan></text>
    <path
       id="path13"
       d="m 43.67,123.09404 h -3.5"
       style="fill:#000000;fill-opacity:1;fill-rule:nonzero;stroke:#000000;stroke-width:0.8;stroke-linecap:butt;stroke-linejoin:round;stroke-miterlimit:10;stroke-dasharray:none;stroke-opacity:1"
       transform="matrix(1.3333333,0,0,-1.3333333,0,460.8)" />
    <text
       id="text14"
       xml:space="preserve"
       transform="matrix(1.3333333,0,0,1.3333333,32.226667,301.29961)"
       style="-inkscape-font-specification:'Times New Roman, ';font-family:'Times New Roman';font-weight:normal;font-style:normal;font-stretch:normal;font-variant:normal;font-size:11.00000028px"><tspan
         style="font-variant:normal;font-weight:normal;font-family:'Times New Roman';writing-mode:lr-tb;fill:#000000;fill-opacity:1;fill-rule:nonzero;stroke:none;-inkscape-font-specification:'Times New Roman, ';font-style:normal;font-stretch:normal;font-size:11.00000028px"
         x="0 5 7.5"
         y="0"
         sodipodi:role="line"
         id="tspan14">2.0</tspan></text>
    <path
       id="path14"
       d="m 43.67,157.76773 h -3.5"
       style="fill:#000000;fill-opacity:1;fill-rule:nonzero;stroke:#000000;stroke-width:0.8;stroke-linecap:butt;stroke-linejoin:round;stroke-miterlimit:10;stroke-dasharray:none;stroke-opacity:1"
       transform="matrix(1.3333333,0,0,-1.3333333,0,460.8)" />
    <text
       id="text15"
       xml:space="preserve"
       transform="matrix(1.3333333,0,0,1.3333333,32.226667,255.06802)"
       style="-inkscape-font-specification:'Times New Roman, ';font-family:'Times New Roman';font-weight:normal;font-style:normal;font-stretch:normal;font-variant:normal;font-size:11.00000028px"><tspan
         style="font-variant:normal;font-weight:normal;font-family:'Times New Roman';writing-mode:lr-tb;fill:#000000;fill-opacity:1;fill-rule:nonzero;stroke:none;-inkscape-font-specification:'Times New Roman, ';font-style:normal;font-stretch:normal;font-size:11.00000028px"
         x="0 5 7.5"
         y="0"
         sodipodi:role="line"
         id="tspan15">2.5</tspan></text>
    <path
       id="path15"
       d="m 43.67,192.44142 h -3.5"
       style="fill:#000000;fill-opacity:1;fill-rule:nonzero;stroke:#000000;stroke-width:0.8;stroke-linecap:butt;stroke-linejoin:round;stroke-miterlimit:10;stroke-dasharray:none;stroke-opacity:1"
       transform="matrix(1.3333333,0,0,-1.3333333,0,460.8)" />
    <text
       id="text16"
       xml:space="preserve"
       transform="matrix(1.3333333,0,0,1.3333333,32.226667,208.83644)"
       style="-inkscape-font-specification:'Times New Roman, ';font-family:'Times New Roman';font-weight:normal;font-style:normal;font-stretch:normal;font-variant:normal;font-size:11.00000028px"><tspan
         style="font-variant:normal;font-weight:normal;font-family:'Times New Roman';writing-mode:lr-tb;fill:#000000;fill-opacity:1;fill-rule:nonzero;stroke:none;-inkscape-font-specification:'Times New Roman, ';font-style:normal;font-stretch:normal;font-size:11.00000028px"
         x="0 5 7.5"
         y="0"
         sodipodi:role="line"
         id="tspan16">3.0</tspan></text>
    <path
       id="path16"
       d="m 43.67,227.11511 h -3.5"
       style="fill:#000000;fill-opacity:1;fill-rule:nonzero;stroke:#000000;stroke-width:0.8;stroke-linecap:butt;stroke-linejoin:round;stroke-miterlimit:10;stroke-dasharray:none;stroke-opacity:1"
       transform="matrix(1.3333333,0,0,-1.3333333,0,460.8)" />
    <text
       id="text17"
       xml:space="preserve"
       transform="matrix(1.3333333,0,0,1.3333333,32.226667,162.60485)"
       style="-inkscape-font-specification:'Times New Roman, ';font-family:'Times New Roman';font-weight:normal;font-style:normal;font-stretch:normal;font-variant:normal;font-size:11.00000028px"><tspan
         style="font-variant:normal;font-weight:normal;font-family:'Times New Roman';writing-mode:lr-tb;fill:#000000;fill-opacity:1;fill-rule:nonzero;stroke:none;-inkscape-font-specification:'Times New Roman, ';font-style:normal;font-stretch:normal;font-size:11.00000028px"
         x="0 5 7.5"
         y="0"
         sodipodi:role="line"
         id="tspan17">3.5</tspan></text>
    <path
       id="path17"
       d="m 43.67,261.7888 h -3.5"
       style="fill:#000000;fill-opacity:1;fill-rule:nonzero;stroke:#000000;stroke-width:0.8;stroke-linecap:butt;stroke-linejoin:round;stroke-miterlimit:10;stroke-dasharray:none;stroke-opacity:1"
       transform="matrix(1.3333333,0,0,-1.3333333,0,460.8)" />
    <text
       id="text18"
       xml:space="preserve"
       transform="matrix(1.3333333,0,0,1.3333333,32.226667,116.37327)"
       style="-inkscape-font-specification:'Times New Roman, ';font-family:'Times New Roman';font-weight:normal;font-style:normal;font-stretch:normal;font-variant:normal;font-size:11.00000028px"><tspan
         style="font-variant:normal;font-weight:normal;font-family:'Times New Roman';writing-mode:lr-tb;fill:#000000;fill-opacity:1;fill-rule:nonzero;stroke:none;-inkscape-font-specification:'Times New Roman, ';font-style:normal;font-stretch:normal;font-size:11.00000028px"
         x="0 5 7.5"
         y="0"
         sodipodi:role="line"
         id="tspan18">4.0</tspan></text>
    <path
       id="path18"
       d="m 43.67,296.46249 h -3.5"
       style="fill:#000000;fill-opacity:1;fill-rule:nonzero;stroke:#000000;stroke-width:0.8;stroke-linecap:butt;stroke-linejoin:round;stroke-miterlimit:10;stroke-dasharray:none;stroke-opacity:1"
       transform="matrix(1.3333333,0,0,-1.3333333,0,460.8)" />
    <text
       id="text19"
       xml:space="preserve"
       transform="matrix(1.3333333,0,0,1.3333333,32.226667,70.141684)"
       style="-inkscape-font-specification:'Times New Roman, ';font-family:'Times New Roman';font-weight:normal;font-style:normal;font-stretch:normal;font-variant:normal;font-size:11.00000028px"><tspan
         style="font-variant:normal;font-weight:normal;font-family:'Times New Roman';writing-mode:lr-tb;fill:#000000;fill-opacity:1;fill-rule:nonzero;stroke:none;-inkscape-font-specification:'Times New Roman, ';font-style:normal;font-stretch:normal;font-size:11.00000028px"
         x="0 5 7.5"
         y="0"
         sodipodi:role="line"
         id="tspan19">4.5</tspan></text>
    <path
       id="path19"
       d="m 43.67,331.13618 h -3.5"
       style="fill:#000000;fill-opacity:1;fill-rule:nonzero;stroke:#000000;stroke-width:0.8;stroke-linecap:butt;stroke-linejoin:round;stroke-miterlimit:10;stroke-dasharray:none;stroke-opacity:1"
       transform="matrix(1.3333333,0,0,-1.3333333,0,460.8)" />
    <text
       id="text20"
       xml:space="preserve"
       transform="matrix(1.3333333,0,0,1.3333333,32.226667,23.910099)"
       style="-inkscape-font-specification:'Times New Roman, ';font-family:'Times New Roman';font-weight:normal;font-style:normal;font-stretch:normal;font-variant:normal;font-size:11.00000028px"><tspan
         style="font-variant:normal;font-weight:normal;font-family:'Times New Roman';writing-mode:lr-tb;fill:#000000;fill-opacity:1;fill-rule:nonzero;stroke:none;-inkscape-font-specification:'Times New Roman, ';font-style:normal;font-stretch:normal;font-size:11.00000028px"
         x="0 5 7.5"
         y="0"
         sodipodi:role="line"
         id="tspan20">5.0</tspan></text>
    <path
       id="path21"
       d="m 62.139545,53.766088 3.152977,1.476251 3.596364,1.79554 5.616239,2.704001 0.541918,0.244726 0.788244,0.399876 2.561794,1.279576 1.03457,0.548339 0.886775,0.432121 0.689714,0.320765 0.689713,0.353638 1.330162,0.664526 0.591183,0.299759 4.926526,2.46078 0.738979,0.321133 0.738979,0.40437 2.019875,1.056877 3.596364,1.87983 0.443388,0.239886 1.280896,0.614609 1.428693,0.768796 0.295591,0.147196 0.344857,0.18246 0.394122,0.216734 0.738982,0.340705 1.92134,0.957322 0.29559,0.125885 1.4287,0.751112 0.54191,0.267636 0.64045,0.324988 1.18237,0.665124 0.34486,0.161013 1.52722,0.808034 0.59118,0.287564 0.44339,0.233253 1.67502,0.894576 0.49265,0.264723 0.93604,0.5136 3.59636,1.950002 0.68972,0.35491 0.34486,0.207993 1.23163,0.757985 0.34485,0.175395 1.08384,0.658679 1.42869,0.740386 0.39412,0.217782 0.68972,0.306986 2.95591,1.64088 0.59119,0.277809 1.37942,0.869668 0.59119,0.34088 0.8375,0.505469 0.54192,0.342544 11.42954,6.424709 0.39412,0.207421 0.68972,0.403654 0.59118,0.330853 2.80812,1.685119 3.35004,1.707873 1.18236,0.652277 0.34486,0.190734 8.27657,4.73929 0.54191,0.29384 4.23682,2.58452 1.18236,0.64317 1.2809,0.92656 0.78824,0.34854 1.08384,0.69008 1.87208,1.05076 0.64045,0.42675 0.64044,0.41391 1.82282,1.18322 0.39412,0.27447 0.54192,0.33921 6.65081,3.9183 0.39412,0.2813 0.64045,0.35818 0.78824,0.50386 0.39413,0.24855 5.46844,3.58179 0.73898,0.46992 1.1331,0.79162 0.59118,0.36908 0.19706,0.12965 0.19706,0.10373 0.44339,0.3161 0.29559,0.17818 0.54192,0.32632 1.57649,0.97447 1.37943,0.90227 0.24632,0.15463 0.68972,0.46388 0.49265,0.36662 1.33016,0.89158 0.59118,0.34151 1.2809,0.64398 12.02072,7.54596 0.2956,0.16402 0.59118,0.38296 0.24632,0.0992 0.24633,0.17153 0.39412,0.30614 0.24633,0.17555 1.57649,1.01446 0.34485,0.17977 0.98531,0.74155 0.83751,0.48508 0.49265,0.39888 0.54192,0.33819 0.93604,0.60171 0.24633,0.13453 0.0985,0.059 0.39412,0.33439 3.15297,2.15977 0.34486,0.24631 0.88678,0.59416 0.78824,0.46932 0.34486,0.1917 0.88677,0.60338 0.64045,0.44146 0.68971,0.47403 1.03457,0.80961 0.2956,0.22648 1.18236,0.69008 0.49265,0.41613 0.49266,0.26832 0.29559,0.20568 0.44339,0.25401 0.88677,0.55259 0.19706,0.085 1.33016,0.85305 0.34486,0.28385 1.03457,0.7461 0.44339,0.2456 0.39412,0.24613 0.98531,0.65524 0.24632,0.17159 2.66033,1.78066 0.29559,0.18519 0.29559,0.26329 2.2662,1.50432 0.73898,0.54285 0.73898,0.45078 0.39412,0.31952 0.83751,0.54659 0.49265,0.26862 0.59119,0.46738 0.54191,0.36325 1.4287,1.00408 1.03457,0.73429 0.93604,0.71684 0.29559,0.15861 0.64045,0.45064 0.73898,0.45212 0.19706,0.0843 1.87208,1.48929 0.49265,0.3146 0.44339,0.2905 1.18236,0.85941 0.49265,0.38119 0.39413,0.27716 0.29559,0.28574 0.39412,0.1954 1.03457,0.75113 0.29559,0.21804 3.6949,2.53638 0.19706,0.17041 0.88677,0.73109 0.19706,0.16329 0.44339,0.24008 0.19706,0.1792 9.40967,6.68051 0.29559,0.30376 1.1331,0.93715 2.21694,1.55779 0.29559,0.20363 0.0985,0.0406 1.28089,0.97822 6.30596,4.93228 1.72428,1.31123 0.29559,0.27304 0.29559,0.29676 0.34486,0.20843 0.44339,0.36776 0.19706,0.10445 0.68971,0.48369 0.0985,0.0498 0.59119,0.47438 0.24632,0.0787 0.29559,0.25693 0.1478,0.10778 0.24633,0.20755 0.39412,0.32088 0.29559,0.22378 0.54192,0.53852 0.19706,0.11083 0.29559,0.30372 0.24633,0.17781 0.39412,0.28064 1.18237,0.85291 0.29559,0.26874 0.19706,0.15749 0.54192,0.5268 0.39412,0.27161 0.59118,0.62659 0.93604,0.71436 0.88678,0.69586 0.49265,0.36262 0.19706,0.12864 0.39412,0.32257 0.59118,0.37016 0.68972,0.6111 0.24632,0.14445 1.77355,1.53138 0.49266,0.40565 0.34485,0.29103 0.34486,0.22858 0.44339,0.38749 0.49265,0.33404 1.92135,1.57136 0.19706,0.23256 0.34485,0.2492 0.39412,0.31945 0.98531,0.83051 0.24633,0.22193 0.29559,0.27139 1.72428,1.40786 0.49266,0.36614 0.29559,0.37559 0.44338,0.38163 1.37943,1.16114 0.1478,0.12855 0.44338,0.27421 0.2956,0.17993 0.34485,0.35012 1.33016,1.11896 0.19707,0.19735 1.52722,1.26638 0.39412,0.27538 0.24633,0.25772 0.14779,0.12188 0.98531,0.75986 0.19706,0.16829 0.39412,0.25183 0.54192,0.48238 0.24632,0.12812 0.44339,0.42951 0.29559,0.23926 0.44339,0.37054 0.24633,0.12178 2.61106,2.04943 0.19706,0.17984 0.39412,0.3612 6.55228,4.8594 0.39412,0.34798 8.12877,7.02863 0.19706,0.19239 0.0985,0.0893 0.34486,0.33027 0.19706,0.13785 0.54192,0.52745 0.64044,0.5744 1.08384,1.07485 1.33016,1.08237 1.2809,1.06794 0.39412,0.386 0.24633,0.20207 0.24632,0.14925 0.34486,0.34195 0.39412,0.34995 0.19706,0.13679 0.64045,0.52216 1.2809,1.17132 0.44339,0.24916 0.64044,0.53696 0.2956,0.17319 5.41917,4.59357 0.68972,0.4374 0.29559,0.34682 0.14779,0.11292 1.62576,1.65363 0.14779,0.1226 0.39413,0.51064 0.64044,0.52446 0.44339,0.37299 0.19706,0.19985 0.39412,0.36154 0.1478,0.10453 1.82281,1.77192 0.34486,0.25487 1.97061,2.01751 2.31547,2.0278 0.73898,0.88953 1.28089,1.01175 0.34486,0.35448 0.24633,0.16716 2.51253,2.40453 0.29559,0.17706 2.01987,1.83094 0.59119,0.47522 0.24632,0.1461 0.49266,0.46923 2.01987,2.16534 0.19706,0.24407 0.0985,0.0503 0.44339,0.38737 0.49265,0.4958 0.19706,0.14756 0.44339,0.47615 0.34486,0.27584 0.39412,0.17854 0.19706,0.12344 0.49265,0.40761 0.1478,0.10784 0.44339,0.47609 0.29559,0.2774 0.83751,0.75029 0.34485,0.24029 0.1478,0.0893 0.1478,0.13432 1.03457,0.99994 0.14779,0.1097 0.34486,0.33107 0.14779,0.0847 1.92135,1.67191 1.42869,1.24407 0.0985,0.0389 0.1478,0.13552 0.39412,0.26523 1.52722,1.46099 0.24633,0.24217 0.24633,0.21484 0.68971,0.92484 0.1478,0.0839 0.24632,0.18673 0.34486,0.13597 0.19706,0.16517 0.54192,0.4452 0.39412,0.39776 0.29559,0.36115 3.74416,3.69336 0.1478,0.11917 5.86256,5.29623 0.1478,0.0925 0.34485,0.26677 0.88678,1.02031 0.34486,0.28017 0.19706,0.21477 0.54192,0.66484 0.24632,0.23189 0.1478,0.12819 0.73898,0.88178 0.29559,0.2464 0.34486,0.3126 1.28089,1.22368 0.0493,-0.009 0.19706,0.30234 0.14779,0.0707 2.36474,2.07088 0.44338,0.34114 0.54192,0.45074 0.83751,0.92274 0.1478,0.12243 2.1184,2.2599 0.29559,0.39032 0.54192,0.39372 1.67502,1.42671 0.0493,-0.0124 0.19706,0.20099 0.68971,0.57143 0.39412,0.33856 0.44339,0.46713 0.19706,0.15931 1.47796,1.5282 0.49265,0.49774 0.54192,0.46399 0.24633,0.1953 1.77354,1.81221 0.1478,0.10814 1.33016,1.48231 0.44339,0.47451 1.82281,1.83736 v 0"
       style="fill:none;stroke:#377eb8;stroke-width:6;stroke-linecap:butt;stroke-linejoin:round;stroke-miterlimit:10;stroke-dasharray:6, 9.9;stroke-dashoffset:0;stroke-opacity:0.4"
       transform="matrix(1.3333333,0,0,-1.3333333,0,460.8)"
       clip-path="url(#clipPath22)" />
    <path
       id="path23"
       d="m 62.139545,53.982881 15.785959,7.685105 15.785959,7.935345 15.292647,7.933684 15.29265,8.18382 15.29265,8.44184 14.79933,8.422855 14.79934,8.67971 14.79934,8.94441 14.30602,8.90546 14.30602,9.16785 14.30603,9.43798 13.81271,9.3763 13.81272,9.64292 13.81271,9.9171 13.81272,10.19908 13.3194,10.1094 13.3194,10.38643 13.3194,10.67108 13.31941,10.96352 12.82609,10.84133 12.82609,11.12729 12.82609,11.42079 12.82609,11.72203 12.82609,12.03122 12.33278,11.86764 12.33279,12.16848 6.90635,6.9486 v 0"
       style="fill:none;stroke:#377eb8;stroke-width:5;stroke-linecap:square;stroke-linejoin:round;stroke-miterlimit:10;stroke-dasharray:none;stroke-opacity:0.5"
       transform="matrix(1.3333333,0,0,-1.3333333,0,460.8)"
       clip-path="url(#clipPath24)" />
    <path
       id="path25"
       d="m 62.139545,53.763313 0.394123,0.177939 3.202241,1.649632 0.541918,0.282621 1.133101,0.516553 1.576488,0.728319 1.280897,0.636367 1.527223,0.722597 1.625754,0.816648 0.837509,0.386285 4.77873,2.349498 0.886775,0.46759 2.364732,1.192154 1.083836,0.483697 0.492653,0.236394 9.508194,4.756958 0.295592,0.128534 1.133101,0.607337 0.689714,0.335796 0.344856,0.160544 0.541918,0.287241 3.74416,1.887194 5.51771,2.868473 0.68971,0.369146 7.63612,4.162303 0.59118,0.273537 0.73898,0.436425 0.73898,0.399582 0.68971,0.37209 1.67502,0.84783 0.73898,0.429106 1.08384,0.557561 4.5324,2.584124 0.24633,0.126463 0.54191,0.317362 0.83751,0.454574 0.39413,0.224729 3.15297,1.701331 0.34486,0.129153 2.51253,1.411061 1.47795,0.749695 0.54192,0.30075 1.92135,0.995801 0.59118,0.353006 0.83751,0.504336 1.57649,0.831246 0.64045,0.414247 1.47795,0.830537 2.66033,1.456779 0.59118,0.399812 0.39412,0.220927 0.49266,0.224225 2.80811,1.634021 0.64045,0.31971 1.2809,0.706707 2.85738,1.54221 0.2956,0.22665 0.64044,0.33486 1.57649,0.9787 0.54192,0.35976 1.92135,1.29397 0.24632,0.18084 1.23163,0.72186 1.18237,0.72243 0.19706,0.11049 0.39412,0.25338 1.33017,0.76316 0.19706,0.0903 0.34485,0.21925 3.25151,1.99243 0.73898,0.44063 0.19706,0.12073 0.93604,0.5448 0.59118,0.36309 1.03457,0.71643 1.4287,0.88833 0.59118,0.30689 0.49265,0.31088 1.23163,0.76264 0.29559,0.17217 0.34486,0.24312 0.59118,0.34386 0.88678,0.64362 0.83751,0.49243 4.33534,2.60442 0.44339,0.26872 0.24632,0.18081 0.44339,0.25136 0.1478,0.0639 0.73898,0.48589 1.57649,1.05592 1.33016,0.94245 1.82281,1.19854 0.98531,0.68206 1.97061,1.25945 0.39412,0.19598 0.64045,0.36042 0.24632,0.16987 0.2956,0.18577 7.63611,4.61858 0.29559,0.15489 0.64045,0.44241 0.24633,0.12788 0.73898,0.56675 0.19706,0.0872 0.59118,0.42364 4.87726,3.23493 0.34486,0.27322 1.23163,0.76459 0.29559,0.29316 1.62575,1.03674 1.08384,0.80874 0.24633,0.13141 5.41917,3.52955 0.83751,0.5852 0.49266,0.31431 1.62575,1.09939 0.29559,0.17232 0.19706,0.0957 0.98531,0.7485 2.2662,1.31345 0.24633,0.22051 5.27138,3.46024 0.14779,0.0803 0.64045,0.48251 0.44339,0.35065 0.44339,0.33304 0.59118,0.42759 0.34486,0.32111 1.03457,0.65666 0.34485,0.26889 0.98531,0.6619 0.44339,0.31498 0.78824,0.50926 1.77355,1.31272 0.59118,0.41666 0.24633,0.17403 0.29559,0.15373 0.78825,0.55342 0.24632,0.16163 1.72429,1.24715 0.39412,0.27283 0.73898,0.59576 0.19706,0.12374 0.44339,0.35056 0.49265,0.3836 0.78824,0.55504 0.59118,0.4726 0.24633,0.0833 0.24633,0.13555 2.36473,1.70021 0.64045,0.34749 0.49265,0.46142 0.39412,0.19903 0.34486,0.25636 0.49265,0.51706 0.34486,0.26777 1.77355,1.34708 1.37943,0.85796 0.29559,0.22837 0.14779,0.12107 0.34486,0.27292 0.39412,0.30858 3.20224,2.31634 2.75886,1.95704 0.19706,0.13569 0.19706,0.18594 0.29559,0.29436 0.59118,0.44224 0.68972,0.49577 0.19706,0.11813 0.44339,0.32982 0.44338,0.28151 0.19707,0.11806 0.19706,0.13954 0.29559,0.21735 0.59118,0.37143 0.24633,0.1813 0.83751,0.59601 0.14779,0.11046 0.59119,0.43279 0.8375,0.54119 0.2956,0.23559 0.29559,0.24043 0.93604,0.71926 0.29559,0.13718 0.54192,0.39618 0.29559,0.19433 2.70959,1.93666 1.03457,0.81491 0.83751,0.56783 0.44339,0.38983 0.24632,0.14302 3.3993,2.69687 0.1478,0.0433 0.49265,0.28756 0.83751,0.59625 0.68972,0.52795 0.29559,0.20029 0.78824,0.57696 0.29559,0.20324 0.59119,0.43489 0.29559,0.14402 8.27656,6.14209 0.44339,0.37981 0.49265,0.42878 0.19706,0.18049 3.25151,2.51317 0.14779,0.12348 0.73898,0.71694 2.95592,2.31333 0.29559,0.15147 1.2809,0.95284 0.24632,0.1093 0.34486,0.31883 0.1478,0.085 0.83751,0.61501 0.34485,0.27994 0.73898,0.58533 8.0795,6.54596 0.1478,0.0599 0.24633,0.14974 2.90665,2.41095 0.34485,0.37784 0.68972,0.58558 0.24632,0.12091 0.34486,0.28918 0.24633,0.26577 0.34485,0.27828 0.39412,0.41124 5.91184,4.60271 0.19706,0.21323 0.19706,0.15823 0.49265,0.40779 0.39412,0.36758 0.24633,0.23817 1.82281,1.50316 0.34486,0.23854 0.24633,0.25518 0.24632,0.17651 0.54192,0.38972 0.24633,0.17559 0.39412,0.3031 0.29559,0.14675 0.44339,0.43977 0.24632,0.19302 1.13311,1.03309 1.08383,1.00933 0.68971,0.39053 0.19707,0.16755 0.88677,0.73568 1.52722,0.95923 0.24633,0.23516 0.1478,0.20294 1.18236,1.0216 0.44339,0.27087 0.88677,0.82111 0.1478,0.12863 0.29559,0.35872 1.77355,1.47835 0.44339,0.27499 1.08383,0.98373 0.19706,0.17276 1.97061,1.73752 1.23164,0.9838 0.39412,0.48071 1.77355,1.32113 0.29559,0.29927 0.24633,0.25029 0.44338,0.46084 0.19706,0.1975 0.78825,0.71417 0.54192,0.32381 0.68971,0.47211 0.29559,0.26177 0.29559,0.34064 0.29559,0.26658 0.2956,0.20364 0.78824,0.71086 3.30077,2.76202 0.39412,0.35791 0.2956,0.25637 1.67502,1.31105 0.24632,0.1247 0.78825,0.72124 0.19706,0.16839 0.68971,0.52717 0.54192,0.53958 0.19706,0.20297 0.0985,0.0203 2.2662,1.81161 0.34486,0.19818 0.73898,0.65155 0.19706,0.16451 0.29559,0.38898 0.24633,0.20821 0.34485,0.36784 0.1478,0.0835 0.24632,0.25807 0.34486,0.24824 0.24633,0.16563 2.56179,2.21793 0.34486,0.38551 0.29559,0.21044 0.64045,0.63175 0.0985,0.0615 0.68971,0.68852 0.24633,0.23168 0.39412,0.43454 0.29559,0.19107 1.33016,1.13395 0.44339,0.28942 0.34486,0.32809 1.57649,1.32693 0.24632,0.25551 1.03457,0.84923 1.72429,1.47759 0.68971,0.70407 0.24633,0.15922 0.49265,0.45611 0.39412,0.33561 0.1478,0.0934 0.49265,0.60617 0.64045,0.61388 0.34485,0.36381 0.24633,0.28845 0.54192,0.53986 2.80812,2.78953 0.24632,0.2375 0.39413,0.38097 0.14779,0.10646 0.24633,0.324 1.37943,1.19397 0.93604,0.82929 0.29559,0.30246 0.24632,0.19767 0.44339,0.46461 0.34486,0.47786 0.49265,0.47078 0.19706,0.1623 0.24633,0.25407 5.56697,5.54738 0.44339,0.56961 1.52722,1.44988 0.39412,0.31637 0.54192,0.45345 0.24633,0.33583 0.24633,0.16014 1.33016,1.19241 0.29559,0.33873 0.0985,0.0854 0.34486,0.30427 0.34485,0.31405 0.44339,0.44341 0.1478,0.15308 0.24632,0.2319 0.0985,0.0362 0.54192,0.61612 0.1478,0.12787 0.39412,0.34149 0.54192,0.47241 0.83751,0.712 0.29559,0.27735 0.83751,0.74706 0.29559,0.21671 0.83751,1.05485 0.78824,0.49665 0.88678,0.99839 0.49265,0.59095 0.14779,0.12607 0.39413,0.43864 0.0985,0.0477 0.19706,0.16643 0.14779,0.16306 0.34486,0.54451 0.34486,0.30891 1.28089,1.21598 0.34486,0.30194 0.29559,0.42095 0.24633,0.32884 0.34486,0.39511 0.73897,0.7207 0.1478,0.0859 0.29559,0.19697 0.59119,0.65536 0.19706,0.1745 0.73898,0.7604 0.19706,0.17573 0.44338,0.33843 0.34486,0.31399 0.34486,0.34322 0.29559,0.2186 0.54192,0.53142 0.19706,0.25715 0.0985,0.0661 0.93604,1.03396 1.47796,1.42493 0.34485,0.38585 0.34486,0.38401 0.29559,0.32112 0.39412,0.28627 0.93604,0.90038 0.1478,0.0949 0.83751,1.10444 0.19706,0.26415 0.39412,0.49751 0.49265,0.45818 1.2809,1.36715 0.49265,0.41659 0.24633,0.19688 0.0985,0.13684 0.59118,0.48785 0.19706,0.15032 v 0"
       style="fill:none;stroke:#a65628;stroke-width:3;stroke-linecap:butt;stroke-linejoin:round;stroke-miterlimit:10;stroke-dasharray:3, 4.95;stroke-dashoffset:0;stroke-opacity:1"
       transform="matrix(1.3333333,0,0,-1.3333333,0,460.8)"
       clip-path="url(#clipPath26)" />
    <path
       id="path27"
       d="m 62.139545,53.982881 15.785959,7.685105 15.785959,7.935345 15.292647,7.933684 15.29265,8.18382 15.29265,8.44184 14.79933,8.422855 14.79934,8.67971 14.79934,8.94441 14.30602,8.90546 14.30602,9.16785 14.30603,9.43798 13.81271,9.3763 13.81272,9.64292 13.81271,9.9171 13.81272,10.19908 13.3194,10.10939 13.3194,10.38644 13.3194,10.67108 13.31941,10.96351 12.82609,10.84134 12.82609,11.12729 12.82609,11.42078 12.82609,11.72203 12.82609,12.03122 12.33278,11.86765 12.33279,12.16848 6.90635,6.94859 v 0"
       style="fill:none;stroke:#a65628;stroke-width:2;stroke-linecap:square;stroke-linejoin:round;stroke-miterlimit:10;stroke-dasharray:none;stroke-opacity:1"
       transform="matrix(1.3333333,0,0,-1.3333333,0,460.8)"
       clip-path="url(#clipPath28)" />
    <path
       id="path29"
       d="M 43.67,40.52 V 331.87289"
       style="fill:none;stroke:#000000;stroke-width:0.8;stroke-linecap:square;stroke-linejoin:miter;stroke-miterlimit:10;stroke-dasharray:none;stroke-opacity:1"
       transform="matrix(1.3333333,0,0,-1.3333333,0,460.8)" />
    <path
       id="path30"
       d="M 450,40.52 V 331.87289"
       style="fill:none;stroke:#000000;stroke-width:0.8;stroke-linecap:square;stroke-linejoin:miter;stroke-miterlimit:10;stroke-dasharray:none;stroke-opacity:1"
       transform="matrix(1.3333333,0,0,-1.3333333,0,460.8)" />
    <path
       id="path31"
       d="M 43.67,40.52 H 450"
       style="fill:none;stroke:#000000;stroke-width:0.8;stroke-linecap:square;stroke-linejoin:miter;stroke-miterlimit:10;stroke-dasharray:none;stroke-opacity:1"
       transform="matrix(1.3333333,0,0,-1.3333333,0,460.8)" />
    <path
       id="path32"
       d="M 43.67,331.87289 H 450"
       style="fill:none;stroke:#000000;stroke-width:0.8;stroke-linecap:square;stroke-linejoin:miter;stroke-miterlimit:10;stroke-dasharray:none;stroke-opacity:1"
       transform="matrix(1.3333333,0,0,-1.3333333,0,460.8)" />
    <path
       id="path33"
       d="m 52.67,315.87289 h 20 v 7 h -20 z"
       style="fill:#377eb8;fill-opacity:0.6;fill-rule:nonzero;stroke:#377eb8;stroke-width:1;stroke-linecap:butt;stroke-linejoin:miter;stroke-miterlimit:10;stroke-dasharray:none;stroke-opacity:0.6"
       transform="matrix(1.3333333,0,0,-1.3333333,0,460.8)" />
    <text
       id="text33"
       xml:space="preserve"
       transform="matrix(1.3333333,0,0,1.3333333,107.56,39.636144)"
       style="-inkscape-font-specification:'Times New Roman, ';font-family:'Times New Roman';font-weight:normal;font-style:normal;font-stretch:normal;font-variant:normal;font-size:11.00000028px"><tspan
         style="font-variant:normal;font-weight:normal;font-family:'Times New Roman';writing-mode:lr-tb;fill:#000000;fill-opacity:1;fill-rule:nonzero;stroke:none;-inkscape-font-specification:'Times New Roman, ';font-style:normal;font-stretch:normal;font-size:11.00000028px"
         x="0 6.1100001 11.11 14.44 18.879999 23.32"
         y="0"
         sodipodi:role="line"
         id="tspan33">Three-cell</tspan></text>
    <path
       id="path34"
       d="m 52.67,301.71664 h 20 v 7 h -20 z"
       style="fill:#a65628;fill-opacity:1;fill-rule:nonzero;stroke:#a65628;stroke-width:1;stroke-linecap:butt;stroke-linejoin:miter;stroke-miterlimit:10;stroke-dasharray:none;stroke-opacity:1"
       transform="matrix(1.3333333,0,0,-1.3333333,0,460.8)" />
    <text
       id="text34"
       xml:space="preserve"
       transform="matrix(1.3333333,0,0,1.3333333,107.56,58.511144)"
       style="-inkscape-font-specification:'Times New Roman, ';font-family:'Times New Roman';font-weight:normal;font-style:normal;font-stretch:normal;font-variant:normal;font-size:11.00000028px"><tspan
         style="font-variant:normal;font-weight:normal;font-family:'Times New Roman';writing-mode:lr-tb;fill:#000000;fill-opacity:1;fill-rule:nonzero;stroke:none;-inkscape-font-specification:'Times New Roman, ';font-style:normal;font-stretch:normal;font-size:11.00000028px"
         x="0 5.5599999 8.3400002 13.34 17.780001"
         y="0"
         sodipodi:role="line"
         id="tspan34">Five-cell</tspan></text>
    <path
       id="path35"
       d="m 148.96687,319.37289 h 10 10"
       style="fill:none;stroke:#000000;stroke-width:2;stroke-linecap:butt;stroke-linejoin:round;stroke-miterlimit:10;stroke-dasharray:2, 3.3;stroke-dashoffset:0;stroke-opacity:1"
       transform="matrix(1.3333333,0,0,-1.3333333,0,460.8)" />
    <text
       id="text35"
       xml:space="preserve"
       transform="matrix(1.3333333,0,0,1.3333333,235.95583,39.636144)"
       style="-inkscape-font-specification:'Times New Roman, ';font-family:'Times New Roman';font-weight:normal;font-style:normal;font-stretch:normal;font-variant:normal;font-size:11.00000028px"><tspan
         style="font-variant:normal;font-weight:normal;font-family:'Times New Roman';writing-mode:lr-tb;fill:#000000;fill-opacity:1;fill-rule:nonzero;stroke:none;-inkscape-font-specification:'Times New Roman, ';font-style:normal;font-stretch:normal;font-size:11.00000028px"
         x="0 5.5599999 8.3400002 16.120001 21.120001 23.9 28.34 31.120001 33.900002 38.900002 43.900002"
         y="0"
         sodipodi:role="line"
         id="tspan35">Simulations</tspan></text>
    <path
       id="path36"
       d="m 148.96687,305.23227 h 10 10"
       style="fill:none;stroke:#000000;stroke-width:2;stroke-linecap:square;stroke-linejoin:round;stroke-miterlimit:10;stroke-dasharray:none;stroke-opacity:1"
       transform="matrix(1.3333333,0,0,-1.3333333,0,460.8)" />
    <text
       id="text36"
       xml:space="preserve"
       transform="matrix(1.3333333,0,0,1.3333333,235.95583,58.490311)"
       style="font-size:11.00000028px;-inkscape-font-specification:'Times New Roman, ';font-family:'Times New Roman';font-weight:normal;font-style:normal;font-stretch:normal;font-variant:normal"><tspan
         style="font-variant:normal;font-weight:normal;font-family:'Times New Roman';writing-mode:lr-tb;fill:#000000;fill-opacity:1;fill-rule:nonzero;stroke:none;font-size:11.00000028px;-inkscape-font-specification:'Times New Roman, ';font-style:normal;font-stretch:normal"
         x="0 8.8900003 13.33 16.110001 21.110001 26.110001 31.110001 33.610001 38.610001 41.939999 44.439999 52.220001 57.220001 65 69.440002 74.440002 77.220001"
         y="0"
         sodipodi:role="line"
         id="tspan36">Method of moments</tspan></text>
  </g>
</svg>
