<?xml version="1.0" encoding="UTF-8" standalone="no"?>
<!-- Created with Inkscape (http://www.inkscape.org/) -->

<svg
   version="1.1"
   id="svg1"
   width="960"
   height="384"
   viewBox="0 0 960 384"
   sodipodi:docname="Prob_extinction.svg"
   inkscape:version="1.3 (0e150ed, 2023-07-21)"
   xmlns:inkscape="http://www.inkscape.org/namespaces/inkscape"
   xmlns:sodipodi="http://sodipodi.sourceforge.net/DTD/sodipodi-0.dtd"
   xmlns="http://www.w3.org/2000/svg"
   xmlns:svg="http://www.w3.org/2000/svg">
  <defs
     id="defs1">
    <linearGradient
       id="swatch15"
       inkscape:swatch="solid">
      <stop
         style="stop-color:#010406;stop-opacity:0.60159397;"
         offset="0"
         id="stop15" />
    </linearGradient>
    <clipPath
       clipPathUnits="userSpaceOnUse"
       id="clipPath17">
      <path
         d="M 90,31.68 H 343.63636 V 253.44 H 90 Z"
         id="path17" />
    </clipPath>
    <clipPath
       clipPathUnits="userSpaceOnUse"
       id="clipPath19">
      <path
         d="M 90,31.68 H 343.63636 V 253.44 H 90 Z"
         id="path19" />
    </clipPath>
    <clipPath
       clipPathUnits="userSpaceOnUse"
       id="clipPath21">
      <path
         d="M 90,31.68 H 343.63636 V 253.44 H 90 Z"
         id="path21" />
    </clipPath>
    <clipPath
       clipPathUnits="userSpaceOnUse"
       id="clipPath23">
      <path
         d="M 90,31.68 H 343.63636 V 253.44 H 90 Z"
         id="path23" />
    </clipPath>
    <clipPath
       clipPathUnits="userSpaceOnUse"
       id="clipPath45">
      <path
         d="M 394.36364,31.68 H 648 V 253.44 H 394.36364 Z"
         id="path45" />
    </clipPath>
    <clipPath
       clipPathUnits="userSpaceOnUse"
       id="clipPath47">
      <path
         d="M 394.36364,31.68 H 648 V 253.44 H 394.36364 Z"
         id="path47" />
    </clipPath>
  </defs>
  <sodipodi:namedview
     id="namedview1"
     pagecolor="#ffffff"
     bordercolor="#000000"
     borderopacity="0.25"
     inkscape:showpageshadow="2"
     inkscape:pageopacity="0.0"
     inkscape:pagecheckerboard="0"
     inkscape:deskcolor="#d1d1d1"
     inkscape:zoom="1.243466"
     inkscape:cx="549.67327"
     inkscape:cy="188.18368"
     inkscape:window-width="1840"
     inkscape:window-height="833"
     inkscape:window-x="0"
     inkscape:window-y="25"
     inkscape:window-maximized="0"
     inkscape:current-layer="g1">
    <inkscape:page
       x="0"
       y="0"
       inkscape:label="1"
       id="page1"
       width="960"
       height="384"
       margin="0"
       bleed="0" />
  </sodipodi:namedview>
  <g
     id="g1"
     inkscape:groupmode="layer"
     inkscape:label="1">
    <path
       id="path1"
       d="M 0,0 H 720 V 288 H 0 Z"
       style="fill:#ffffff;fill-opacity:1;fill-rule:nonzero;stroke:none"
       transform="matrix(1.3333333,0,0,-1.3333333,0,384)" />
    <path
       id="path2"
       d="M 90,31.68 H 343.63636 V 253.44 H 90 Z"
       style="fill:#ffffff;fill-opacity:1;fill-rule:nonzero;stroke:none"
       transform="matrix(1.3333333,0,0,-1.3333333,0,384)" />
    <path
       id="path3"
       d="m 101.52893,31.68 v -3.5"
       style="fill:#000000;fill-opacity:1;fill-rule:nonzero;stroke:#000000;stroke-width:0.8;stroke-linecap:butt;stroke-linejoin:round;stroke-miterlimit:10;stroke-dasharray:none;stroke-opacity:1"
       transform="matrix(1.3333333,0,0,-1.3333333,0,384)" />
    <text
       id="text3"
       xml:space="preserve"
       transform="matrix(1.3333333,0,0,1.3333333,132.03857,360.34333)"
       style="-inkscape-font-specification:'Times New Roman, ';font-family:'Times New Roman';font-weight:normal;font-style:normal;font-stretch:normal;font-variant:normal;font-size:11.00000028px"><tspan
         style="font-variant:normal;font-weight:normal;font-family:'Times New Roman';writing-mode:lr-tb;fill:#000000;fill-opacity:1;fill-rule:nonzero;stroke:none;-inkscape-font-specification:'Times New Roman, ';font-style:normal;font-stretch:normal;font-size:11.00000028px"
         x="0"
         y="0"
         id="tspan3">0</tspan></text>
    <path
       id="path4"
       d="m 163.01653,31.68 v -3.5"
       style="fill:#000000;fill-opacity:1;fill-rule:nonzero;stroke:#000000;stroke-width:0.8;stroke-linecap:butt;stroke-linejoin:round;stroke-miterlimit:10;stroke-dasharray:none;stroke-opacity:1"
       transform="matrix(1.3333333,0,0,-1.3333333,0,384)" />
    <text
       id="text4"
       xml:space="preserve"
       transform="matrix(1.3333333,0,0,1.3333333,207.35537,360.34333)"
       style="-inkscape-font-specification:'Times New Roman, ';font-family:'Times New Roman';font-weight:normal;font-style:normal;font-stretch:normal;font-variant:normal;font-size:11.00000028px"><tspan
         style="font-variant:normal;font-weight:normal;font-family:'Times New Roman';writing-mode:lr-tb;fill:#000000;fill-opacity:1;fill-rule:nonzero;stroke:none;-inkscape-font-specification:'Times New Roman, ';font-style:normal;font-stretch:normal;font-size:11.00000028px"
         x="0 5 10"
         y="0"
         sodipodi:role="line"
         id="tspan4">200</tspan></text>
    <path
       id="path5"
       d="m 224.50413,31.68 v -3.5"
       style="fill:#000000;fill-opacity:1;fill-rule:nonzero;stroke:#000000;stroke-width:0.8;stroke-linecap:butt;stroke-linejoin:round;stroke-miterlimit:10;stroke-dasharray:none;stroke-opacity:1"
       transform="matrix(1.3333333,0,0,-1.3333333,0,384)" />
    <text
       id="text5"
       xml:space="preserve"
       transform="matrix(1.3333333,0,0,1.3333333,289.33884,360.34333)"
       style="-inkscape-font-specification:'Times New Roman, ';font-family:'Times New Roman';font-weight:normal;font-style:normal;font-stretch:normal;font-variant:normal;font-size:11.00000028px"><tspan
         style="font-variant:normal;font-weight:normal;font-family:'Times New Roman';writing-mode:lr-tb;fill:#000000;fill-opacity:1;fill-rule:nonzero;stroke:none;-inkscape-font-specification:'Times New Roman, ';font-style:normal;font-stretch:normal;font-size:11.00000028px"
         x="0 5 10"
         y="0"
         sodipodi:role="line"
         id="tspan5">400</tspan></text>
    <path
       id="path6"
       d="m 285.99174,31.68 v -3.5"
       style="fill:#000000;fill-opacity:1;fill-rule:nonzero;stroke:#000000;stroke-width:0.8;stroke-linecap:butt;stroke-linejoin:round;stroke-miterlimit:10;stroke-dasharray:none;stroke-opacity:1"
       transform="matrix(1.3333333,0,0,-1.3333333,0,384)" />
    <text
       id="text6"
       xml:space="preserve"
       transform="matrix(1.3333333,0,0,1.3333333,371.32231,360.34333)"
       style="-inkscape-font-specification:'Times New Roman, ';font-family:'Times New Roman';font-weight:normal;font-style:normal;font-stretch:normal;font-variant:normal;font-size:11.00000028px"><tspan
         style="font-variant:normal;font-weight:normal;font-family:'Times New Roman';writing-mode:lr-tb;fill:#000000;fill-opacity:1;fill-rule:nonzero;stroke:none;-inkscape-font-specification:'Times New Roman, ';font-style:normal;font-stretch:normal;font-size:11.00000028px"
         x="0 5 10"
         y="0"
         sodipodi:role="line"
         id="tspan6">600</tspan></text>
    <text
       id="text7"
       xml:space="preserve"
       transform="matrix(1.3333333,0,0,1.3333333,275.26799,377.78083)"
       style="-inkscape-font-specification:'Times New Roman, ';font-family:'Times New Roman';font-weight:normal;font-style:normal;font-stretch:normal;font-variant:normal;font-size:11.00000028px"><tspan
         style="font-variant:normal;font-weight:normal;font-family:'Times New Roman';writing-mode:lr-tb;fill:#000000;fill-opacity:1;fill-rule:nonzero;stroke:none;-inkscape-font-specification:'Times New Roman, ';font-style:normal;font-stretch:normal;font-size:11.00000028px"
         x="0 5.7662501 8.5462503 16.32625"
         y="0"
         sodipodi:role="line"
         id="tspan7">Time</tspan></text>
    <path
       id="path7"
       d="M 90,41.76 H 86.5"
       style="fill:#000000;fill-opacity:1;fill-rule:nonzero;stroke:#000000;stroke-width:0.8;stroke-linecap:butt;stroke-linejoin:round;stroke-miterlimit:10;stroke-dasharray:none;stroke-opacity:1"
       transform="matrix(1.3333333,0,0,-1.3333333,0,384)" />
    <text
       id="text8"
       xml:space="preserve"
       transform="matrix(1.3333333,0,0,1.3333333,94,332.945)"
       style="-inkscape-font-specification:'Times New Roman, ';font-family:'Times New Roman';font-weight:normal;font-style:normal;font-stretch:normal;font-variant:normal"><tspan
         style="font-variant:normal;font-weight:normal;font-size:10px;font-family:'Times New Roman';writing-mode:lr-tb;fill:#000000;fill-opacity:1;fill-rule:nonzero;stroke:none;-inkscape-font-specification:'Times New Roman, ';font-style:normal;font-stretch:normal"
         x="0 5 7.5"
         y="0"
         sodipodi:role="line"
         id="tspan8">0.0</tspan></text>
    <path
       id="path8"
       d="M 90,70.340866 H 86.5"
       style="fill:#000000;fill-opacity:1;fill-rule:nonzero;stroke:#000000;stroke-width:0.8;stroke-linecap:butt;stroke-linejoin:round;stroke-miterlimit:10;stroke-dasharray:none;stroke-opacity:1"
       transform="matrix(1.3333333,0,0,-1.3333333,0,384)" />
    <text
       id="text9"
       xml:space="preserve"
       transform="matrix(1.3333333,0,0,1.3333333,94,294.83718)"
       style="-inkscape-font-specification:'Times New Roman, ';font-family:'Times New Roman';font-weight:normal;font-style:normal;font-stretch:normal;font-variant:normal"><tspan
         style="font-variant:normal;font-weight:normal;font-size:10px;font-family:'Times New Roman';writing-mode:lr-tb;fill:#000000;fill-opacity:1;fill-rule:nonzero;stroke:none;-inkscape-font-specification:'Times New Roman, ';font-style:normal;font-stretch:normal"
         x="0 5 7.5"
         y="0"
         sodipodi:role="line"
         id="tspan9">0.1</tspan></text>
    <path
       id="path9"
       d="M 90,98.921731 H 86.5"
       style="fill:#000000;fill-opacity:1;fill-rule:nonzero;stroke:#000000;stroke-width:0.8;stroke-linecap:butt;stroke-linejoin:round;stroke-miterlimit:10;stroke-dasharray:none;stroke-opacity:1"
       transform="matrix(1.3333333,0,0,-1.3333333,0,384)" />
    <text
       id="text10"
       xml:space="preserve"
       transform="matrix(1.3333333,0,0,1.3333333,94,256.72936)"
       style="-inkscape-font-specification:'Times New Roman, ';font-family:'Times New Roman';font-weight:normal;font-style:normal;font-stretch:normal;font-variant:normal"><tspan
         style="font-variant:normal;font-weight:normal;font-size:10px;font-family:'Times New Roman';writing-mode:lr-tb;fill:#000000;fill-opacity:1;fill-rule:nonzero;stroke:none;-inkscape-font-specification:'Times New Roman, ';font-style:normal;font-stretch:normal"
         x="0 5 7.5"
         y="0"
         sodipodi:role="line"
         id="tspan10">0.2</tspan></text>
    <path
       id="path10"
       d="M 90,127.5026 H 86.5"
       style="fill:#000000;fill-opacity:1;fill-rule:nonzero;stroke:#000000;stroke-width:0.8;stroke-linecap:butt;stroke-linejoin:round;stroke-miterlimit:10;stroke-dasharray:none;stroke-opacity:1"
       transform="matrix(1.3333333,0,0,-1.3333333,0,384)" />
    <text
       id="text11"
       xml:space="preserve"
       transform="matrix(1.3333333,0,0,1.3333333,94,218.62154)"
       style="-inkscape-font-specification:'Times New Roman, ';font-family:'Times New Roman';font-weight:normal;font-style:normal;font-stretch:normal;font-variant:normal"><tspan
         style="font-variant:normal;font-weight:normal;font-size:10px;font-family:'Times New Roman';writing-mode:lr-tb;fill:#000000;fill-opacity:1;fill-rule:nonzero;stroke:none;-inkscape-font-specification:'Times New Roman, ';font-style:normal;font-stretch:normal"
         x="0 5 7.5"
         y="0"
         sodipodi:role="line"
         id="tspan11">0.3</tspan></text>
    <path
       id="path11"
       d="M 90,156.08346 H 86.5"
       style="fill:#000000;fill-opacity:1;fill-rule:nonzero;stroke:#000000;stroke-width:0.8;stroke-linecap:butt;stroke-linejoin:round;stroke-miterlimit:10;stroke-dasharray:none;stroke-opacity:1"
       transform="matrix(1.3333333,0,0,-1.3333333,0,384)" />
    <text
       id="text12"
       xml:space="preserve"
       transform="matrix(1.3333333,0,0,1.3333333,94,180.51372)"
       style="-inkscape-font-specification:'Times New Roman, ';font-family:'Times New Roman';font-weight:normal;font-style:normal;font-stretch:normal;font-variant:normal"><tspan
         style="font-variant:normal;font-weight:normal;font-size:10px;font-family:'Times New Roman';writing-mode:lr-tb;fill:#000000;fill-opacity:1;fill-rule:nonzero;stroke:none;-inkscape-font-specification:'Times New Roman, ';font-style:normal;font-stretch:normal"
         x="0 5 7.5"
         y="0"
         sodipodi:role="line"
         id="tspan12">0.4</tspan></text>
    <path
       id="path12"
       d="M 90,184.66433 H 86.5"
       style="fill:#000000;fill-opacity:1;fill-rule:nonzero;stroke:#000000;stroke-width:0.8;stroke-linecap:butt;stroke-linejoin:round;stroke-miterlimit:10;stroke-dasharray:none;stroke-opacity:1"
       transform="matrix(1.3333333,0,0,-1.3333333,0,384)" />
    <text
       id="text13"
       xml:space="preserve"
       transform="matrix(1.3333333,0,0,1.3333333,94,142.4059)"
       style="-inkscape-font-specification:'Times New Roman, ';font-family:'Times New Roman';font-weight:normal;font-style:normal;font-stretch:normal;font-variant:normal"><tspan
         style="font-variant:normal;font-weight:normal;font-size:10px;font-family:'Times New Roman';writing-mode:lr-tb;fill:#000000;fill-opacity:1;fill-rule:nonzero;stroke:none;-inkscape-font-specification:'Times New Roman, ';font-style:normal;font-stretch:normal"
         x="0 5 7.5"
         y="0"
         sodipodi:role="line"
         id="tspan13">0.5</tspan></text>
    <path
       id="path13"
       d="M 90,213.24519 H 86.5"
       style="fill:#000000;fill-opacity:1;fill-rule:nonzero;stroke:#000000;stroke-width:0.8;stroke-linecap:butt;stroke-linejoin:round;stroke-miterlimit:10;stroke-dasharray:none;stroke-opacity:1"
       transform="matrix(1.3333333,0,0,-1.3333333,0,384)" />
    <text
       id="text14"
       xml:space="preserve"
       transform="matrix(1.3333333,0,0,1.3333333,94,104.29807)"
       style="-inkscape-font-specification:'Times New Roman, ';font-family:'Times New Roman';font-weight:normal;font-style:normal;font-stretch:normal;font-variant:normal"><tspan
         style="font-variant:normal;font-weight:normal;font-size:10px;font-family:'Times New Roman';writing-mode:lr-tb;fill:#000000;fill-opacity:1;fill-rule:nonzero;stroke:none;-inkscape-font-specification:'Times New Roman, ';font-style:normal;font-stretch:normal"
         x="0 5 7.5"
         y="0"
         sodipodi:role="line"
         id="tspan14">0.6</tspan></text>
    <path
       id="path14"
       d="M 90,241.82606 H 86.5"
       style="fill:#000000;fill-opacity:1;fill-rule:nonzero;stroke:#000000;stroke-width:0.8;stroke-linecap:butt;stroke-linejoin:round;stroke-miterlimit:10;stroke-dasharray:none;stroke-opacity:1"
       transform="matrix(1.3333333,0,0,-1.3333333,0,384)" />
    <text
       id="text15"
       xml:space="preserve"
       transform="matrix(1.3333333,0,0,1.3333333,94,66.190253)"
       style="-inkscape-font-specification:'Times New Roman, ';font-family:'Times New Roman';font-weight:normal;font-style:normal;font-stretch:normal;font-variant:normal"><tspan
         style="font-variant:normal;font-weight:normal;font-size:10px;font-family:'Times New Roman';writing-mode:lr-tb;fill:#000000;fill-opacity:1;fill-rule:nonzero;stroke:none;-inkscape-font-specification:'Times New Roman, ';font-style:normal;font-stretch:normal"
         x="0 5 7.5"
         y="0"
         sodipodi:role="line"
         id="tspan15">0.7</tspan></text>
    <text
       id="text16"
       xml:space="preserve"
       transform="matrix(0,-1.3333333,1.3333333,0,85.791667,223.55542)"
       style="font-size:11.00000028px"><tspan
         style="font-style:normal;font-variant:normal;font-weight:normal;font-stretch:normal;font-family:'Times New Roman';-inkscape-font-specification:'Times New Roman, ';writing-mode:lr-tb;fill:#000000;fill-opacity:1;fill-rule:nonzero;stroke:none;font-size:11.00000028px"
         x="0 5.5599999 8.8900003 13.89 18.889999 23.33 28.33 31.110001 33.889999 36.669998 39.450001"
         y="0"
         sodipodi:role="line"
         id="tspan16">Probability</tspan></text>
    <path
       id="path16"
       d="m 101.52893,41.76 0.21213,0.560185 0.0461,0.09718 0.19061,0.434429 0.91925,1.943499 0.26439,0.565901 0.0461,0.102891 0.27054,0.58305 0.56261,1.274706 0.18139,0.382984 0.0461,0.102891 0.2398,0.468726 1.41729,2.869519 0.15372,0.234363 1.18978,2.446523 0.1568,0.428713 1.36195,2.766627 0.18446,0.405849 5.22645,9.483131 0.0492,0.108607 1.40499,2.377928 0.0646,0.108607 3.20658,5.727606 0.0676,0.102891 0.19983,0.325822 0.0892,0.09718 0.17524,0.348686 0.0615,0.09717 0.15987,0.268661 1.09141,1.794878 0.0584,0.102891 0.23673,0.457294 0.4673,0.634495 0.0584,0.108607 0.72862,1.12037 0.0922,0.108608 1.05451,1.726284 0.0646,0.102891 0.23673,0.457294 0.93461,1.503353 0.0707,0.108608 0.46731,0.634495 0.0707,0.108607 0.79011,1.234694 0.0738,0.102891 0.19368,0.297241 0.0707,0.108607 0.98381,1.594812 0.083,0.108608 0.41505,0.53732 0.0799,0.102891 0.19061,0.291525 0.0769,0.108607 0.40274,0.514456 0.0646,0.108607 0.17523,0.228647 0.10146,0.102891 0.17216,0.217215 0.0707,0.102891 0.19676,0.308673 0.0584,0.102891 0.15372,0.240079 0.0676,0.108608 0.57491,0.834561 0.10453,0.108607 0.18754,0.274377 0.41197,0.531604 0.0707,0.102891 0.19676,0.314389 0.10453,0.108608 0.34125,0.400132 0.10453,0.108607 0.35048,0.417281 0.0769,0.108607 0.40889,0.525888 0.12913,0.108607 0.38429,0.480159 0.11376,0.108607 0.27054,0.26866 0.10761,0.102891 0.2029,0.331538 0.62718,0.931737 0.083,0.108607 0.18753,0.274376 0.39967,0.50874 0.11375,0.108607 0.15987,0.262944 0.20291,0.331538 0.33511,0.388703 0.0615,0.10861 0.46115,0.62306 0.10146,0.10861 0.36892,0.45158 0.0584,0.1086 0.15987,0.17149 0.0799,0.10861 0.42734,0.56018 0.0461,0.10289 0.16909,0.20578 0.10146,0.10861 0.27054,0.26866 0.11683,0.0972 0.14757,0.19435 0.46731,0.63449 0.12297,0.10861 0.3966,0.50302 0.10145,0.10289 0.1445,0.1772 0.0953,0.1029 0.16909,0.20578 0.10453,0.10861 0.46116,0.62306 0.0861,0.10861 0.17217,0.21721 0.0892,0.10861 0.17523,0.22865 0.59029,0.86314 0.10452,0.1086 0.15065,0.14291 0.0861,0.10861 0.39967,0.50874 0.0707,0.10289 0.15987,0.17148 0.33203,0.38299 0.11376,0.1086 0.31973,0.36012 0.0922,0.10861 0.27362,0.27437 0.0799,0.10861 0.32281,0.36584 0.0738,0.1086 0.42427,0.55447 0.10452,0.10861 0.17832,0.24008 0.1322,0.10861 0.24287,0.21721 0.083,0.10861 0.31974,0.36012 0.14449,0.10861 0.32281,0.36583 0.0984,0.10289 0.1568,0.16006 0.0891,0.1086 0.30437,0.33154 0.0922,0.10861 0.29514,0.31439 0.0984,0.1086 0.31359,0.34869 0.0891,0.10289 0.17832,0.24008 0.16909,0.10861 0.15064,0.13719 0.0953,0.1086 0.26747,0.26295 0.10453,0.10861 0.30744,0.33725 0.0646,0.10861 0.21213,0.16005 0.0984,0.10861 0.16294,0.18291 0.0738,0.10861 0.26132,0.25151 0.11683,0.10861 0.40274,0.51446 0.1076,0.1086 0.32281,0.36584 0.11068,0.10861 0.14757,0.13147 0.11068,0.10861 0.13527,0.12575 0.13527,0.10861 0.31974,0.36012 0.1322,0.1086 0.19368,0.12576 0.12913,0.10289 0.1322,0.16577 0.14757,0.10861 0.34433,0.40585 0.11067,0.1086 0.28285,0.29153 0.0891,0.10861 0.28592,0.29724 0.11375,0.1086 0.27977,0.28581 0.12298,0.10861 0.2521,0.23436 0.11067,0.10861 0.23673,0.20578 0.12913,0.10861 0.26747,0.26294 0.14757,0.10861 0.28284,0.29152 0.12605,0.1029 0.17217,0.21721 0.18446,0.10861 0.14142,0.16005 0.16602,0.10861 0.19368,0.12575 0.0953,0.10861 0.2152,0.16577 0.0953,0.10289 0.14757,0.12576 0.0892,0.1086 0.15987,0.17721 0.17831,0.1086 0.24288,0.21722 0.0922,0.10861 0.24595,0.22293 0.12297,0.1086 0.17217,0.21722 0.26747,0.26294 0.10453,0.10861 0.26132,0.25151 0.12912,0.10861 0.289,0.30296 0.14449,0.10289 0.1445,0.11432 0.25517,0.24008 0.0799,0.10289 0.1445,0.11432 0.27977,0.28581 0.15372,0.10861 0.28592,0.29724 0.10145,0.10861 0.28284,0.29152 0.083,0.10861 0.15679,0.16577 0.14143,0.10861 0.15372,0.14862 0.0769,0.1086 0.14143,0.10289 0.20598,0.14863 0.1076,0.1086 0.2521,0.23437 0.16602,0.1086 0.17831,0.0972 0.0984,0.10861 0.22751,0.18862 0.10453,0.1029 0.15064,0.13719 0.12605,0.10861 0.24288,0.2172 0.15986,0.10861 0.31359,0.34868 0.1445,0.10291 0.15372,0.15432 0.12297,0.10861 0.22751,0.18863 0.0953,0.10861 0.15987,0.17149 0.11068,0.10289 0.16294,0.18291 0.19061,0.10861 0.27669,0.28009 0.12913,0.10289 0.15372,0.14863 0.25825,0.24579 0.14449,0.10289 0.1445,0.11433 0.2152,0.16576 0.12913,0.10861 0.23058,0.19435 0.1076,0.10861 0.16602,0.19435 0.0891,0.10861 0.20599,0.14862 0.1076,0.1086 0.14142,0.10861 0.16294,0.0972 0.1445,0.1772 0.17524,0.0972 0.13835,0.15434 0.12297,0.10861 0.22751,0.18863 0.12912,0.10861 0.23673,0.20578 0.0738,0.10861 0.23365,0.20006 0.17524,0.10861 0.20291,0.14291 0.11376,0.1086 0.20905,0.15434 0.1568,0.10861 0.18139,0.10289 0.0891,0.1086 0.1322,0.12004 0.14142,0.10861 0.14757,0.12576 0.15987,0.10861 0.27977,0.2858 0.12912,0.10861 0.1568,0.16005 0.25517,0.24008 0.12912,0.10289 0.13528,0.0857 0.19061,0.1086 0.14142,0.10289 0.12912,0.10861 0.2398,0.2115 0.11683,0.10861 0.18139,0.10289 0.14757,0.10861 0.21213,0.16005 0.1568,0.10861 0.24595,0.22293 0.16909,0.1086 0.20291,0.14291 0.16909,0.10861 0.22443,0.18291 0.1076,0.10289 0.14142,0.1029 0.10453,0.1086 0.2521,0.23437 0.1445,0.1086 0.20598,0.14862 0.0861,0.10861 0.24288,0.21722 0.19983,0.10289 0.13835,0.0972 0.15064,0.10861 0.24595,0.22293 0.14757,0.10861 0.23366,0.20006 0.083,0.10289 0.14449,0.11433 0.21213,0.1086 0.21214,0.16006 0.17831,0.1086 0.21521,0.16577 0.11375,0.10861 0.21828,0.17149 0.1445,0.1086 0.15986,0.1772 0.14757,0.1029 0.13835,0.0915 0.15065,0.1029 0.14142,0.10289 0.2398,0.2115 0.12297,0.1086 0.23673,0.20579 0.17524,0.1086 0.1445,0.11433 0.13527,0.1086 0.19676,0.13148 0.12297,0.1086 0.23366,0.20007 0.24902,0.10861 0.24595,0.22293 0.16295,0.10289 0.15064,0.1429 0.12912,0.10861 0.19369,0.12575 0.15064,0.10861 0.21214,0.16006 0.21213,0.1086 0.19983,0.13719 0.18754,0.10289 0.1445,0.11433 0.22135,0.1772 0.23673,0.1086 0.17216,0.0857 0.18754,0.1086 0.21828,0.17149 0.17832,0.10861 0.20598,0.14862 0.17217,0.1086 0.2275,0.18864 0.1199,0.10289 0.1445,0.11432 0.16294,0.0686 0.15679,0.1086 0.22136,0.1772 0.15679,0.10861 0.18446,0.10861 0.20906,0.10861 0.24903,0.22864 0.17524,0.10861 0.22135,0.1772 0.19369,0.10861 0.18446,0.10861 0.13835,0.10861 0.22443,0.18291 0.13834,0.10289 0.13835,0.0915 0.1199,0.10861 0.19369,0.12575 0.15679,0.1029 0.14142,0.1086 0.18139,0.10289 0.1445,0.12004 0.23672,0.10861 0.18754,0.11432 0.19369,0.10861 0.17524,0.0915 0.0984,0.10289 0.13834,0.0972 0.15065,0.1086 0.18446,0.10861 0.19369,0.10289 0.14142,0.10289 0.21213,0.10289 0.12605,0.0457 0.20291,0.14291 0.18139,0.10861 0.20906,0.15433 0.13834,0.10289 0.12605,0.0514 0.17217,0.10861 0.2152,0.16577 0.17524,0.1086 0.18447,0.10861 0.19368,0.10861 0.18139,0.10289 0.23058,0.10861 0.22443,0.18291 0.17217,0.10861 0.14142,0.10289 0.17831,0.10861 0.21213,0.16005 0.12605,0.10861 0.15987,0.0629 0.14142,0.10289 0.14142,0.10289 0.15372,0.10861 0.18754,0.11432 0.19984,0.10861 0.19368,0.12575 0.12298,0.10861 0.16909,0.08 0.21213,0.1086 0.13527,0.0857 0.19676,0.1086 0.19676,0.13148 0.27055,0.1086 0.16601,0.0743 0.23058,0.10861 0.14142,0.10861 0.23058,0.10861 0.20291,0.1429 0.23058,0.10861 0.20906,0.15433 0.14142,0.10861 0.18754,0.11432 0.15679,0.10861 0.16909,0.08 0.16909,0.10289 0.1322,0.0743 0.21521,0.10861 0.17216,0.0857 0.19676,0.10289 0.12913,0.0629 0.14142,0.10861 0.17831,0.0972 0.17524,0.10289 0.13527,0.13719 0.14757,0.10289 0.13528,0.0857 0.17831,0.10861 0.16294,0.0686 0.14142,0.1086 0.12298,0.0686 0.16294,0.10289 0.14757,0.13147 0.22136,0.10861 0.20291,0.1429 0.2152,0.10861 0.16295,0.0686 0.22135,0.10861 0.16602,0.0743 0.15987,0.10861 0.18753,0.11432 0.15372,0.10289 0.12913,0.0915 0.14142,0.10861 0.17831,0.0972 0.21828,0.10861 0.19676,0.13147 0.12298,0.0972 0.12912,0.10289 0.21213,0.10861 0.1568,0.0572 0.28284,0.1086 0.13527,0.0857 0.16909,0.1086 0.18447,0.10861 0.18139,0.10861 0.13527,0.08 0.17524,0.1086 0.21521,0.16577 0.24902,0.10861 0.19368,0.12575 0.23366,0.10861 0.20291,0.14291 0.23058,0.1086 0.15679,0.0572 0.13835,0.1086 0.19061,0.12004 0.15064,0.0972 0.12913,0.0915 0.20598,0.1086 0.18446,0.10861 0.20291,0.10861 0.18139,0.10289 0.22136,0.10861 0.19061,0.12004 0.28284,0.1086 0.19983,0.13719 0.22136,0.10861 0.1322,0.0743 0.26132,0.10861 0.16602,0.0743 0.24902,0.1086 0.19676,0.13148 0.23673,0.10289 0.1445,0.12004 0.19676,0.1086 0.16909,0.08 0.19983,0.10861 0.16294,0.0686 0.21829,0.10861 0.2029,0.1429 0.21521,0.10289 0.12605,0.0515 0.28899,0.10861 0.17524,0.0915 0.25517,0.1086 0.18447,0.10861 0.19368,0.10861 0.17524,0.0915 0.24288,0.1086 0.19983,0.13719 0.22751,0.10289 0.13835,0.0915 0.16909,0.08 0.22135,0.10861 0.21213,0.16005 0.19369,0.10861 0.13527,0.08 0.34126,0.10861 0.19676,0.13147 0.23673,0.10861 0.16601,0.0743 0.3843,0.10289 0.12605,0.0457 0.22136,0.10861 0.18138,0.10289 0.20906,0.10861 0.12913,0.0572 0.16909,0.08 0.2521,0.10861 0.13834,0.0229 0.20906,0.1086 0.15987,0.0629 0.18754,0.10289 0.13527,0.08 0.32896,0.10861 0.17831,0.0972 0.27669,0.10861 0.1322,0.0686 0.20291,0.10861 0.17524,0.0915 0.2644,0.10861 0.18139,0.10289 0.20291,0.1086 0.17216,0.0858 0.2644,0.1086 0.17831,0.0972 0.22136,0.10861 0.18446,0.1086 0.2398,0.10861 0.16602,0.0743 0.22443,0.10861 0.15372,0.0514 0.25517,0.10861 0.15987,0.0629 0.21828,0.10861 0.15372,0.0514 0.19061,0.10861 0.18139,0.10289 0.23673,0.10861 0.15064,0.0457 0.30129,0.1086 0.19983,0.13719 0.21214,0.10861 0.18139,0.10289 0.20905,0.10289 0.1322,0.0686 0.17832,0.10289 0.12912,0.0629 0.17216,0.10861 0.1568,0.0572 0.27669,0.10861 0.15987,0.0629 0.33203,0.10861 0.17217,0.0857 0.33203,0.10861 0.15065,0.0457 0.26439,0.1086 0.18754,0.11433 0.20906,0.1086 0.16909,0.08 0.20291,0.10861 0.15679,0.0572 0.31359,0.10861 0.18446,0.1086 0.29207,0.10861 0.16294,0.0686 0.23365,0.1029 0.12298,0.0343 0.26747,0.10861 0.15987,0.0629 0.18446,0.10861 0.16909,0.08 0.21213,0.10861 0.15987,0.0629 0.25825,0.1086 0.18753,0.11433 0.289,0.1086 0.16601,0.0743 0.23673,0.10289 0.12605,0.0514 0.30129,0.10861 0.15372,0.0515 0.25517,0.1086 0.15372,0.0514 0.33203,0.1086 0.15372,0.0515 0.27977,0.10289 0.1322,0.0686 0.1445,0.0343 0.31358,0.10861 0.16294,0.0686 0.2521,0.10861 0.17217,0.0857 0.18446,0.10861 0.16294,0.0686 0.19062,0.1086 0.15371,0.0515 0.22136,0.10861 0.19983,0.13718 0.32589,0.10861 0.14757,0.04 0.26132,0.1086 0.17832,0.0972 0.37814,0.1086 0.16602,0.0743 0.40582,0.10861 0.14757,0.04 0.2521,0.10861 0.15987,0.0629 0.35048,0.10861 0.15371,0.0514 0.2767,0.10861 0.16294,0.0686 0.23673,0.10861 0.12605,0.0457 0.28592,0.10861 0.16294,0.0686 0.28899,0.10861 0.1445,0.0343 0.22135,0.1086 0.15065,0.0457 0.39352,0.10861 0.15679,0.0572 0.32281,0.10861 0.18754,0.11432 0.24902,0.10861 0.18446,0.10861 0.27977,0.1086 0.15987,0.0629 0.23673,0.10861 0.16601,0.0743 0.23981,0.10861 0.15679,0.0572 0.34433,0.10861 0.1322,0.0686 0.39967,0.10289 0.12912,0.0572 0.2644,0.10861 0.15372,0.0514 0.38737,0.10289 0.12605,0.0457 0.2398,0.1086 0.16909,0.08 0.20598,0.10289 0.1322,0.0686 0.46116,0.1086 0.17217,0.0857 0.35355,0.1086 0.15679,0.0572 0.21828,0.10289 0.12913,0.0572 0.30744,0.1086 0.16294,0.0686 0.26439,0.10861 0.1322,0.0686 0.21828,0.10861 0.15987,0.0629 0.36585,0.1086 0.16602,0.0743 0.38737,0.10289 0.1322,0.0686 0.1445,0.0343 0.20598,0.10861 0.16602,0.0743 0.28591,0.10861 0.15987,0.0629 0.26132,0.1086 0.15987,0.0629 0.34433,0.10861 0.17217,0.0857 0.3474,0.10861 0.16602,0.0743 0.30744,0.10861 0.13527,0.0171 0.27362,0.10289 0.12605,0.0457 0.28899,0.1086 0.15679,0.0572 0.30437,0.10289 0.1199,0.0229 0.27362,0.10861 0.15064,0.0457 0.3966,0.10861 0.19368,0.12575 0.27055,0.10861 0.15987,0.0629 0.40274,0.1086 0.15064,0.0457 0.24903,0.10861 0.14757,0.04 0.41197,0.10861 0.15064,0.0457 0.52265,0.10861 0.15371,0.0514 0.31974,0.10861 0.15987,0.0629 0.2275,0.10861 0.1322,0.0114 0.30129,0.10861 0.15064,0.0457 0.47961,0.1086 0.14757,0.04 0.41504,0.1086 0.13527,0.08 0.54109,0.10289 0.12913,0.0629 0.45808,0.10861 0.14757,0.04 0.23058,0.10861 0.15987,0.0629 0.50112,0.10861 0.15064,0.0457 0.2644,0.10861 0.16909,0.08 0.33204,0.10861 0.15986,0.0629 0.29207,0.10861 0.12605,0.0514 0.28592,0.10861 0.17831,0.0972 0.34126,0.1086 0.15064,0.0457 0.34741,0.10861 0.16601,0.0743 0.31052,0.10861 0.15371,0.0514 0.43964,0.10861 0.16602,0.0743 0.42119,0.10861 0.15372,0.0514 0.31666,0.10861 0.15679,0.0572 0.64562,0.10861 0.15679,0.0572 0.33819,0.10861 0.16909,0.08 0.33818,0.10861 0.14757,0.04 0.36585,0.10861 0.15372,0.0514 0.35048,0.1086 0.16294,0.0686 0.3966,0.10861 0.15679,0.0572 0.37507,0.1086 0.16909,0.08 0.46424,0.10861 0.14757,0.04 0.26747,0.10861 0.16294,0.0686 0.3474,0.10861 0.15987,0.0629 0.32896,0.10861 0.12912,0.0572 0.50728,0.1086 0.15064,0.0457 0.38122,0.10861 0.12606,0.0515 0.23057,0.1086 0.16295,0.0686 0.36892,0.10861 0.15679,0.0572 0.35356,0.1086 0.14449,0.0343 0.34433,0.10861 0.15372,0.0514 0.28592,0.0972 0.11683,0.0343 0.32281,0.10289 0.12297,0.04 0.43349,0.10861 0.15987,0.0629 0.35355,0.1086 0.15987,0.0629 0.48883,0.10861 0.17216,0.0857 0.33818,0.10861 0.15065,0.0457 0.37815,0.1086 0.15371,0.0514 0.41197,0.10861 0.1445,0.0343 0.28592,0.10861 0.17216,0.0857 0.44886,0.10861 0.13527,0.0171 0.372,0.10861 0.12913,0.0572 0.35048,0.10861 0.15064,0.0457 0.42426,0.1086 0.16602,0.0743 0.32281,0.10861 0.16294,0.0686 0.46731,0.10861 0.14142,0.0286 0.5042,0.10861 0.15372,0.0515 0.44886,0.1086 0.15064,0.0457 0.31052,0.10861 0.14756,0.04 0.46424,0.10861 0.15372,0.0515 0.55338,0.1086 0.15987,0.0629 0.51035,0.10861 0.15064,0.0457 0.53495,0.1086 0.15371,0.0515 0.47346,0.10861 0.14449,0.0343 0.42734,0.10861 0.15372,0.0514 0.43042,0.1086 0.13219,0.0114 0.32589,0.1086 0.15064,0.0457 0.29207,0.10861 0.15372,0.0515 0.44271,0.1086 0.13527,0.0171 0.33511,0.10861 0.15064,0.0457 0.53802,0.10861 0.1445,0.0343 0.41811,0.10861 0.14757,0.04 0.3597,0.10861 0.14757,0.04 0.54417,0.1086 0.13527,0.0171 0.52265,0.10861 0.15064,0.0457 0.34126,0.1086 0.14449,0.0343 0.45809,0.10861 0.14142,0.0286 0.45808,0.10861 0.15372,0.0514 0.40274,0.10861 0.13528,0.0172 0.56568,0.10861 0.15987,0.0629 0.50112,0.10861 0.14757,0.04 0.48883,0.10861 0.15679,0.0572 0.41812,0.10861 0.15065,0.0457 0.34433,0.10861 0.13834,0.0229 0.49805,0.10861 0.1445,0.0343 0.48882,0.1086 0.1445,0.0343 0.35355,0.10861 0.1199,0.0229 0.5042,0.10861 0.1568,0.0572 0.50419,0.10861 0.1568,0.0572 0.36278,0.10861 0.14757,0.04 0.48267,0.10861 0.13835,0.0229 0.41197,0.10861 0.14449,0.0343 0.56261,0.1086 0.14143,0.0286 0.38737,0.1086 0.16294,0.0686 0.56569,0.1086 0.13834,0.0229 0.39352,0.10861 0.1445,0.0343 0.50727,0.10861 0.15065,0.0457 0.51957,0.10861 0.15679,0.0572 0.48268,0.10861 0.13835,0.0229 0.47652,0.10861 0.13835,0.0229 0.32281,0.10861 0.14757,0.04 0.4919,0.10861 0.12913,0.006 0.34125,0.1086 0.15372,0.0514 0.81471,0.10861 0.1445,0.0343 0.43656,0.10861 0.13527,0.0172 0.65177,0.10861 0.15679,0.0572 0.43042,0.10861 0.14757,0.04 0.38737,0.10861 0.12605,0.0514 0.5165,0.10861 0.15371,0.0514 0.33819,0.10861 0.13834,0.0229 0.46424,0.1086 0.14142,0.0286 0.45808,0.10861 0.15064,0.0457 0.41197,0.10861 0.14142,0.0286 0.66407,0.10861 0.14757,0.04 0.49497,0.0972 0.12298,0.0629 0.49497,0.10861 0.15065,0.0457 0.68251,0.10861 0.15065,0.0457 0.44578,0.1086 0.15372,0.0514 0.52264,0.10861 0.15372,0.0514 0.50728,0.10861 0.12605,0.0457 0.49497,0.10861 0.14757,0.04 0.58106,0.10861 0.15064,0.0457 0.46731,0.1086 0.14757,0.04 0.60258,0.1086 0.15064,0.0457 0.48576,0.10861 0.14757,0.04 0.6118,0.10861 0.15679,0.0572 0.57184,0.10861 0.15371,0.0515 0.4919,0.1086 0.1568,0.0572 0.68866,0.10861 0.13835,0.0229 0.4673,0.1086 0.0676,0.0114 v 0"
       style="fill:none;stroke:#377eb8;stroke-width:6;stroke-linecap:butt;stroke-linejoin:round;stroke-miterlimit:10;stroke-dasharray:6, 9.9;stroke-dashoffset:0;stroke-opacity:0.7"
       transform="matrix(1.3333333,0,0,-1.3333333,0,384)"
       clip-path="url(#clipPath17)" />
    <path
       id="path18"
       d="m 101.52893,41.76 3.69418,7.964644 3.69418,7.445214 3.69418,6.974507 4.00203,7.074066 4.00203,6.6196 4.00203,6.207055 4.30988,6.265409 4.30988,5.870305 4.30988,5.51091 4.61772,5.54147 4.61773,5.19929 4.92558,5.2027 4.92557,4.88007 5.23343,4.86339 5.23342,4.56155 5.54127,4.53044 5.54128,4.2498 5.84912,4.20867 6.15697,4.15016 6.46482,4.07683 6.46481,3.81548 6.77267,3.74253 7.08052,3.65949 7.38836,3.56824 7.69621,3.47041 8.00406,3.36754 8.31191,3.26094 8.92761,3.2603 9.23545,3.13453 9.85115,3.10309 10.159,2.96626 10.7747,2.91307 11.39039,2.84571 12.00609,2.76676 11.3904,2.4269 v 0"
       style="fill:none;stroke:#377eb8;stroke-width:6;stroke-linecap:square;stroke-linejoin:round;stroke-miterlimit:10;stroke-dasharray:none;stroke-opacity:0.5"
       transform="matrix(1.3333333,0,0,-1.3333333,0,384)"
       clip-path="url(#clipPath19)" />
    <path
       id="path20"
       d="m 101.52893,41.76 0.0615,0.108607 1.72166,3.429704 0.19983,0.485875 0.61795,1.371881 0.13835,0.262944 1.07296,2.223592 0.19368,0.457294 1.35888,2.760911 0.24595,0.497307 0.0738,0.108608 0.21213,0.365835 0.0646,0.108607 10.64043,19.549312 0.0646,0.108607 1.8477,3.201057 0.0523,0.102892 0.15987,0.26866 0.85467,1.354733 0.0553,0.108607 0.47653,0.651644 0.0922,0.108607 0.64562,0.966033 0.0769,0.102891 0.18754,0.274377 0.62102,0.920304 0.0523,0.108607 0.87005,1.383314 0.083,0.108607 1.01454,1.651974 0.0738,0.108607 0.60258,0.886007 0.0738,0.108608 0.22443,0.411564 0.0615,0.108607 0.20291,0.331538 0.0646,0.108608 0.18139,0.251511 0.0738,0.108608 0.6364,0.948884 0.0953,0.102891 0.16295,0.280093 0.0861,0.108607 0.17216,0.222931 0.083,0.108607 0.56569,0.817413 0.0646,0.108607 0.63025,0.937453 0.04,0.108607 0.20598,0.34297 0.10453,0.108608 0.66099,0.994614 0.11068,0.108607 0.38429,0.480159 0.10146,0.108607 0.50112,0.697373 0.0799,0.108607 0.17216,0.217215 0.43042,0.565901 0.10452,0.102891 0.15372,0.148621 0.083,0.09717 0.15065,0.211498 0.0922,0.108607 0.44271,0.588766 0.0707,0.108607 0.53187,0.754535 0.0984,0.108608 0.56568,0.817412 0.0615,0.108608 0.67329,1.017478 0.0861,0.108608 0.48883,0.674508 0.10453,0.108607 0.30129,0.325823 0.0861,0.10861 0.16602,0.20007 0.0984,0.1086 0.47038,0.64022 0.0922,0.1086 0.27669,0.2801 0.0892,0.1086 0.53494,0.76025 0.0461,0.10861 0.29206,0.30868 0.0676,0.1086 0.55646,0.80027 0.0707,0.1086 0.35356,0.423 0.14142,0.10861 0.39044,0.49159 0.0676,0.10861 0.67944,1.02891 0.11375,0.10861 0.31666,0.3544 0.11375,0.10861 0.14757,0.19434 0.0861,0.0972 0.14757,0.20007 0.38429,0.48015 0.0922,0.10861 0.36892,0.45158 0.0861,0.0915 0.1322,0.15433 0.35663,0.42872 0.1322,0.10861 0.30129,0.32582 0.10145,0.1086 0.35048,0.41729 0.0615,0.1086 0.48575,0.66879 0.0984,0.1029 0.1568,0.24579 0.11682,0.10289 0.16602,0.20007 0.0799,0.1086 0.19061,0.28581 0.27055,0.26866 0.13835,0.10861 0.28899,0.30296 0.0892,0.10289 0.16294,0.29152 0.1076,0.10861 0.15987,0.1772 0.0861,0.10861 0.17217,0.22293 0.10453,0.10861 0.37507,0.46301 0.12298,0.10861 0.25824,0.24579 0.0922,0.10861 0.24596,0.22293 0.0953,0.10861 0.33818,0.39441 0.10761,0.10861 0.30743,0.33725 0.0738,0.10861 0.39659,0.50302 0.11068,0.1029 0.16294,0.18863 0.10453,0.10289 0.17524,0.22865 0.0984,0.10861 0.39352,0.4973 0.0861,0.10861 0.26439,0.25723 0.0953,0.1086 0.32896,0.37727 0.1076,0.10861 0.31051,0.34297 0.11375,0.10861 0.31359,0.34868 0.0769,0.10861 0.20598,0.14862 0.12298,0.10289 0.15065,0.14291 0.11375,0.1086 0.30129,0.32583 0.13834,0.1086 0.29822,0.32011 0.12605,0.10861 0.24287,0.21721 0.10146,0.10861 0.21213,0.16005 0.0984,0.10289 0.1322,0.16577 0.10453,0.10289 0.15372,0.14862 0.28284,0.29153 0.11683,0.1086 0.38429,0.48016 0.12913,0.10861 0.32896,0.37727 0.11682,0.10859 0.20599,0.14862 0.10145,0.0972 0.13835,0.15434 0.11682,0.1086 0.15065,0.13719 0.10453,0.10861 0.2275,0.18863 0.10761,0.10861 0.20598,0.14862 0.10145,0.0972 0.14142,0.16577 0.18754,0.1086 0.28899,0.30296 0.1322,0.10289 0.15987,0.1772 0.17216,0.10861 0.24903,0.22865 0.11683,0.10289 0.14142,0.17148 0.17831,0.10861 0.30437,0.33154 0.0738,0.10861 0.28284,0.29152 0.13835,0.10861 0.28284,0.29152 0.11068,0.1029 0.15679,0.16576 0.12298,0.10861 0.23673,0.20578 0.14757,0.10861 0.22443,0.18292 0.0922,0.1086 0.26132,0.25152 0.12912,0.1086 0.1445,0.12004 0.16909,0.10289 0.12605,0.0743 0.0922,0.10861 0.25518,0.24008 0.1076,0.10861 0.33511,0.3887 0.18446,0.1086 0.27669,0.2801 0.11683,0.1086 0.23058,0.19435 0.12912,0.10861 0.1568,0.16005 0.13527,0.10861 0.23058,0.19435 0.15372,0.10289 0.13527,0.12576 0.15064,0.10861 0.15065,0.13718 0.0922,0.10861 0.24902,0.22865 0.1445,0.10861 0.14757,0.13147 0.15679,0.1086 0.25825,0.2458 0.1445,0.10289 0.15987,0.1772 0.17831,0.10861 0.23365,0.20007 0.11375,0.1086 0.22751,0.18864 0.14449,0.10289 0.1445,0.12004 0.12605,0.1086 0.24902,0.22865 0.1568,0.10861 0.15372,0.14862 0.15372,0.10289 0.14757,0.12576 0.16601,0.1086 0.2521,0.23437 0.16909,0.1086 0.21828,0.17149 0.14757,0.10289 0.12913,0.0972 0.11068,0.1086 0.22135,0.1772 0.19984,0.10861 0.21213,0.16005 0.15679,0.10861 0.19984,0.13719 0.14449,0.10861 0.23366,0.20006 0.0984,0.10861 0.14449,0.11432 0.17217,0.10861 0.14757,0.12576 0.1322,0.1086 0.15371,0.14862 0.12913,0.0972 0.12912,0.10289 0.19369,0.10861 0.22135,0.1772 0.14757,0.10861 0.1322,0.1086 0.18446,0.10861 0.15987,0.10861 0.1322,0.11432 0.17832,0.10861 0.23057,0.19435 0.12298,0.10861 0.23673,0.20578 0.15679,0.10861 0.21521,0.16576 0.14757,0.1029 0.14757,0.12575 0.12297,0.10861 0.23365,0.20007 0.11683,0.1086 0.23058,0.19435 0.18446,0.10861 0.2521,0.23436 0.13835,0.10861 0.22443,0.18292 0.083,0.10861 0.15064,0.13718 0.18446,0.10861 0.21521,0.10861 0.17524,0.0915 0.0953,0.1086 0.19061,0.12004 0.16294,0.10861 0.1445,0.18864 0.13527,0.1086 0.2275,0.18864 0.11375,0.1086 0.25518,0.24008 0.2152,0.10861 0.14758,0.12575 0.12912,0.10861 0.15372,0.14862 0.26439,0.25723 0.1568,0.10861 0.13835,0.0972 0.19983,0.10861 0.19061,0.12004 0.29207,0.10289 0.13834,0.14291 0.17832,0.1086 0.15064,0.13719 0.10453,0.10861 0.17832,0.0972 0.17216,0.10289 0.13527,0.0858 0.17524,0.1086 0.22136,0.17721 0.10145,0.1086 0.18754,0.11433 0.1445,0.1086 0.23365,0.20007 0.20598,0.10861 0.19676,0.13147 0.12605,0.10861 0.24288,0.21721 0.15987,0.10861 0.20291,0.1429 0.18138,0.10289 0.13528,0.12576 0.0953,0.10861 0.17217,0.0857 0.1322,0.10289 0.14142,0.10289 0.20906,0.15434 0.2398,0.10861 0.21213,0.16005 0.15372,0.10861 0.18754,0.11432 0.15064,0.10861 0.20291,0.1429 0.16909,0.10861 0.17524,0.0915 0.23058,0.1086 0.15064,0.14291 0.19369,0.10861 0.20291,0.1429 0.15064,0.10861 0.21214,0.16005 0.17216,0.10289 0.14142,0.10861 0.15372,0.10289 0.1445,0.11432 0.18446,0.10861 0.17524,0.10861 0.1445,0.11432 0.19061,0.12004 0.20906,0.10861 0.22442,0.18292 0.21214,0.1086 0.18139,0.10289 0.27976,0.10861 0.18139,0.10289 0.20291,0.10861 0.13835,0.0915 0.2275,0.10861 0.17524,0.0914 0.17832,0.10861 0.19368,0.12576 0.18447,0.1086 0.20905,0.15434 0.20599,0.10861 0.14142,0.10289 0.16909,0.08 0.20291,0.1086 0.17831,0.0972 0.12298,0.10861 0.2275,0.18863 0.15679,0.10861 0.18754,0.11432 0.19061,0.10861 0.19984,0.13719 0.15064,0.1086 0.16602,0.0743 0.14757,0.10861 0.17524,0.0915 0.23058,0.10861 0.17524,0.0915 0.2152,0.1086 0.26133,0.25151 0.11375,0.10861 0.20598,0.14862 0.17832,0.10289 0.13834,0.0915 0.22751,0.18864 0.26747,0.1086 0.12912,0.0629 0.18447,0.10861 0.17216,0.0857 0.23365,0.10861 0.21521,0.16577 0.29821,0.1086 0.1691,0.08 0.19983,0.10861 0.15065,0.0457 0.2029,0.1086 0.19369,0.12576 0.16909,0.10861 0.14757,0.04 0.19676,0.10861 0.19369,0.12575 0.13834,0.10861 0.16602,0.0743 0.17524,0.10861 0.19676,0.13147 0.22751,0.10861 0.17524,0.0915 0.30128,0.1086 0.17217,0.0857 0.2398,0.1086 0.12913,0.0572 0.2398,0.1086 0.1322,0.0686 0.29821,0.1086 0.17831,0.0972 0.1568,0.10861 0.18753,0.11432 0.15065,0.10861 0.16602,0.0743 0.16601,0.1086 0.12605,0.0515 0.17524,0.10861 0.24288,0.21721 0.24287,0.10861 0.12913,0.0629 0.18753,0.0972 0.12605,0.08 0.15065,0.10861 0.12605,0.0514 0.26132,0.10861 0.18754,0.11432 0.22135,0.10861 0.17217,0.0857 0.25517,0.10861 0.19676,0.13147 0.21828,0.10861 0.23673,0.20578 0.28592,0.10861 0.19676,0.13147 0.24287,0.10861 0.18139,0.10289 0.24288,0.10861 0.15987,0.0629 0.15064,0.10861 0.18446,0.10861 0.21829,0.10289 0.14142,0.10861 0.20598,0.1086 0.18446,0.10861 0.20599,0.10861 0.16601,0.0743 0.20906,0.10861 0.12912,0.0572 0.22751,0.10861 0.18446,0.1086 0.23058,0.10861 0.22443,0.18292 0.11375,0.1086 0.18754,0.11433 0.18139,0.10861 0.17524,0.0914 0.16909,0.10861 0.19061,0.12004 0.24595,0.10861 0.15372,0.0514 0.26747,0.10861 0.16909,0.08 0.21521,0.10861 0.18446,0.1086 0.24903,0.10861 0.12912,0.0629 0.18446,0.1086 0.19369,0.12576 0.19983,0.10861 0.1322,0.0743 0.23673,0.10861 0.13527,0.08 0.16294,0.10289 0.12913,0.0629 0.27054,0.10861 0.19061,0.12004 0.17524,0.10861 0.14757,0.04 0.1691,0.10861 0.16909,0.08 0.16294,0.10861 0.16909,0.08 0.14142,0.10289 0.13835,0.0972 0.18754,0.10861 0.12297,0.0686 0.19369,0.10861 0.16294,0.0686 0.19676,0.10861 0.18754,0.11433 0.37814,0.1086 0.18754,0.11433 0.31359,0.1086 0.16909,0.08 0.19369,0.10289 0.12912,0.0629 0.2521,0.10861 0.18754,0.11432 0.19368,0.0972 0.12913,0.0972 0.24595,0.10861 0.15679,0.0572 0.17831,0.10861 0.19984,0.13718 0.15987,0.0972 0.12605,0.0743 0.24902,0.10861 0.17524,0.0915 0.26132,0.1086 0.12913,0.0629 0.31358,0.10861 0.15987,0.0629 0.18446,0.1086 0.15065,0.0457 0.28592,0.10861 0.17216,0.0857 0.16909,0.10861 0.17832,0.0972 0.26132,0.10861 0.17216,0.0857 0.32589,0.10861 0.15372,0.0514 0.23365,0.1086 0.18446,0.10861 0.31359,0.10861 0.12297,0.04 0.23058,0.10861 0.1568,0.0572 0.14757,0.10861 0.15679,0.0572 0.26747,0.10861 0.17832,0.0972 0.25517,0.10861 0.18446,0.10861 0.16909,0.1086 0.18754,0.11433 0.23058,0.10861 0.16909,0.08 0.21521,0.10861 0.16601,0.0743 0.24288,0.10289 0.13527,0.0857 0.18139,0.10861 0.16909,0.08 0.19676,0.1086 0.17831,0.0972 0.24903,0.10289 0.1322,0.0686 0.2398,0.10861 0.13527,0.08 0.23673,0.1086 0.20291,0.14291 0.18754,0.10861 0.16294,0.0686 0.33203,0.10861 0.13527,0.08 0.18139,0.1029 0.12298,0.04 0.36892,0.10861 0.16909,0.08 0.34126,0.10289 0.1199,0.0286 0.18754,0.10861 0.15679,0.0572 0.19984,0.10861 0.16601,0.0743 0.18754,0.10861 0.17524,0.0915 0.30129,0.10289 0.12605,0.0514 0.21213,0.10861 0.16909,0.08 0.24595,0.0972 0.12913,0.0915 0.16294,0.0686 0.29514,0.1086 0.17831,0.0972 0.41812,0.1086 0.15679,0.0572 0.22751,0.10289 0.12912,0.0572 0.30129,0.10861 0.13527,0.0857 0.33511,0.10861 0.16602,0.0743 0.372,0.1086 0.16601,0.0743 0.18754,0.10861 0.1199,0.0229 0.19369,0.1086 0.15679,0.0572 0.36893,0.1086 0.17831,0.0972 0.22443,0.1086 0.18139,0.1029 0.34433,0.1086 0.17831,0.0972 0.25825,0.10861 0.16909,0.08 0.17832,0.10861 0.13834,0.0915 0.26747,0.10861 0.18139,0.10289 0.19984,0.1086 0.15064,0.0457 0.30744,0.10861 0.15372,0.0515 0.30744,0.1086 0.18446,0.10861 0.29821,0.10861 0.12913,0.0629 0.20598,0.1086 0.17832,0.0972 0.28591,0.10861 0.15372,0.0514 0.36278,0.10861 0.16602,0.0743 0.26439,0.10861 0.15987,0.0629 0.21213,0.10861 0.17217,0.0857 0.28591,0.10861 0.15065,0.0457 0.25825,0.10861 0.17524,0.0915 0.28591,0.1086 0.17217,0.0857 0.22135,0.1086 0.1568,0.0572 0.20906,0.10861 0.16601,0.0743 0.51035,0.10289 0.12297,0.04 0.372,0.1086 0.18447,0.10861 0.33818,0.10861 0.17216,0.0857 0.36893,0.10861 0.15064,0.0457 0.24903,0.10861 0.15064,0.0457 0.2644,0.10861 0.13835,0.0229 0.19983,0.1086 0.18447,0.10861 0.37507,0.10861 0.17524,0.0915 0.18754,0.1086 0.12912,0.0629 0.21213,0.10861 0.14757,0.04 0.24903,0.10861 0.12605,0.0857 0.2521,0.10861 0.17831,0.0972 0.31051,0.1086 0.1568,0.0572 0.28591,0.10861 0.15065,0.0457 0.24287,0.10861 0.17832,0.0972 0.23365,0.10861 0.16294,0.0686 0.36586,0.10861 0.13834,0.0229 0.46731,0.1086 0.14142,0.0286 0.36893,0.10861 0.15371,0.0514 0.30744,0.1086 0.11683,0.0172 0.2275,0.10861 0.15987,0.0629 0.3597,0.10861 0.15372,0.0514 0.36278,0.10861 0.15679,0.0572 0.46423,0.10861 0.15987,0.0629 0.30436,0.1086 0.17832,0.0972 0.49805,0.1086 0.16294,0.0686 0.31666,0.10861 0.17217,0.0857 0.42734,0.10861 0.15986,0.0629 0.36586,0.10861 0.16601,0.0743 0.35356,0.10861 0.15371,0.0515 0.31359,0.1086 0.1322,0.0686 0.28284,0.1086 0.1568,0.0572 0.40889,0.10861 0.12605,0.0457 0.28592,0.10861 0.14449,0.0343 0.29822,0.1086 0.16601,0.0743 0.29822,0.10861 0.17216,0.0857 0.32896,0.10861 0.16909,0.08 0.23366,0.1086 0.14142,0.0286 0.36585,0.1086 0.15987,0.0629 0.38737,0.10861 0.15372,0.0514 0.36277,0.10861 0.14757,0.04 0.36893,0.10861 0.17831,0.0972 0.27362,0.1086 0.15987,0.0629 0.44579,0.10861 0.12912,0.0572 0.35355,0.10861 0.15065,0.0457 0.2521,0.1086 0.14757,0.04 0.27669,0.1086 0.17217,0.0858 0.37815,0.1086 0.14449,0.0343 0.44271,0.10861 0.16909,0.08 0.6364,0.1086 0.16602,0.0743 0.41811,0.10861 0.15987,0.0629 0.43041,0.10861 0.15065,0.0457 0.38122,0.10861 0.15065,0.0457 0.31051,0.10861 0.15372,0.0514 0.43656,0.10861 0.16602,0.0743 0.45501,0.10861 0.15064,0.0457 0.31359,0.10861 0.16294,0.0686 0.29206,0.10861 0.15987,0.0629 0.43656,0.10289 0.1322,0.0686 0.28899,0.10289 0.12913,0.0629 0.32281,0.10861 0.14757,0.04 0.34433,0.10861 0.14142,0.0286 0.40889,0.10861 0.15065,0.0457 0.35048,0.10861 0.14449,0.0343 0.55032,0.10861 0.16909,0.08 0.38737,0.10861 0.14757,0.04 0.43964,0.10861 0.14449,0.0343 0.25518,0.1086 0.15986,0.0629 0.30437,0.10289 0.12297,0.0343 0.49498,0.10861 0.14142,0.0286 0.46116,0.10861 0.14757,0.04 0.33818,0.10861 0.14757,0.04 0.3597,0.10861 0.16294,0.0686 0.39967,0.10861 0.1568,0.0572 0.34125,0.10289 0.13527,0.08 0.14143,0.0286 0.30128,0.10861 0.15065,0.0457 0.43964,0.1086 0.14449,0.0343 0.43041,0.10861 0.1322,0.0114 0.27977,0.10861 0.13835,0.0229 0.35048,0.10861 0.14757,0.04 0.43963,0.10861 0.14758,0.04 0.41196,0.10861 0.14142,0.0286 0.30129,0.10861 0.15065,0.0457 0.34433,0.1086 0.15372,0.0515 0.53186,0.10861 0.15065,0.0457 0.28899,0.10289 0.12605,0.0457 0.45808,0.1086 0.1445,0.0343 0.5165,0.10861 0.1199,0.0286 0.54724,0.10861 0.15679,0.0572 0.41811,0.10861 0.15372,0.0514 0.48576,0.10861 0.12297,0.04 0.39045,0.10861 0.16294,0.0686 0.3597,0.10861 0.13527,0.0171 0.3966,0.10861 0.14757,0.04 0.66099,0.10861 0.1568,0.0572 0.372,0.10861 0.14142,0.0286 0.59643,0.1086 0.14449,0.0343 0.42119,0.10861 0.12298,0.04 0.62717,0.10861 0.15372,0.0515 0.79012,0.1086 0.14757,0.04 0.54109,0.1086 0.14142,0.0286 0.45501,0.10861 0.18753,0.11432 0.55954,0.10861 0.16602,0.0743 0.40582,0.10861 0.16294,0.0686 0.6241,0.10861 0.12605,0.0514 0.43963,0.1086 0.13835,0.0229 0.66407,0.10861 0.15986,0.0629 0.59951,0.10861 0.15064,0.0457 0.30437,0.10861 0.15372,0.0514 0.32588,0.10861 0.13835,0.0229 0.42426,0.10861 0.15372,0.0515 0.6241,0.10861 0.12605,0.0514 0.57491,0.10861 0.1199,0.0286 0.57798,0.10861 0.15987,0.0629 0.37815,0.10861 0.13835,0.0229 0.455,0.1086 0.15372,0.0514 0.31666,0.10861 0.15372,0.0514 0.4089,0.10861 0.15372,0.0514 0.67021,0.10861 0.14757,0.04 0.51342,0.10861 0.15065,0.0457 0.50727,0.10861 0.12297,0.0343 0.47346,0.1086 0.15987,0.0629 0.31973,0.10861 0.15065,0.0457 0.75015,0.1086 0.12297,0.0343 0.15065,0.0457 0.38429,0.10861 0.1445,0.0343 0.44578,0.1086 0.15065,0.0457 0.50112,0.10861 0.14142,0.0286 0.61488,0.10861 0.13835,0.0229 0.37815,0.10861 0.13219,0.0114 0.5411,0.10861 0.14757,0.04 0.52264,0.10861 0.14757,0.04 0.56876,0.10289 0.11683,0.0172 0.35663,0.10861 0.15064,0.0457 0.5165,0.10861 0.14142,0.0286 0.4673,0.1086 0.15065,0.0457 0.40889,0.10861 0.15372,0.0515 0.41197,0.10861 0.13527,0.0171 0.65177,0.10861 0.14449,0.0343 0.48883,0.1086 0.14142,0.0286 0.51035,0.1086 0.14142,0.0286 0.58413,0.10861 0.14142,0.0286 0.44886,0.10861 0.14142,0.0286 0.51957,0.10861 0.15987,0.0629 0.45809,0.1086 0.14449,0.0343 0.56569,0.10861 0.13834,0.0229 0.42427,0.10861 0.14449,0.0343 0.44886,0.1086 0.1445,0.0343 0.44271,0.10861 0.14142,0.0286 0.58106,0.10861 0.13835,0.0229 0.60258,0.10289 0.12297,0.0343 0.48883,0.10861 0.14757,0.04 0.59643,0.10861 0.13834,0.0229 0.47346,0.0915 v 0"
       style="fill:none;stroke:#a65628;stroke-width:3;stroke-linecap:butt;stroke-linejoin:round;stroke-miterlimit:10;stroke-dasharray:3, 4.95;stroke-dashoffset:0;stroke-opacity:1"
       transform="matrix(1.3333333,0,0,-1.3333333,0,384)"
       clip-path="url(#clipPath21)" />
    <path
       id="path22"
       d="m 101.52893,41.76 3.69418,7.964644 3.69418,7.445214 3.69418,6.974507 4.00203,7.074066 4.00203,6.6196 4.00203,6.207055 4.30988,6.265409 4.30988,5.870305 4.30988,5.51091 4.61772,5.54147 4.61773,5.19929 4.92558,5.2027 4.92557,4.88007 5.23343,4.86339 5.23342,4.56155 5.54127,4.53044 5.54128,4.2498 5.84912,4.20867 6.15697,4.15016 6.46482,4.07683 6.46481,3.81548 6.77267,3.74253 7.08052,3.65949 7.38836,3.56824 7.69621,3.47041 8.00406,3.36754 8.31191,3.26094 8.92761,3.2603 9.23545,3.13453 9.85115,3.10309 10.159,2.96626 10.7747,2.91307 11.39039,2.84571 12.00609,2.76676 11.3904,2.4269 v 0"
       style="fill:none;stroke:#a65628;stroke-width:2;stroke-linecap:square;stroke-linejoin:round;stroke-miterlimit:10;stroke-dasharray:none;stroke-opacity:1"
       transform="matrix(1.3333333,0,0,-1.3333333,0,384)"
       clip-path="url(#clipPath23)" />
    <path
       id="path24"
       d="M 90,31.68 V 253.44"
       style="fill:none;stroke:#000000;stroke-width:0.8;stroke-linecap:square;stroke-linejoin:miter;stroke-miterlimit:10;stroke-dasharray:none;stroke-opacity:1"
       transform="matrix(1.3333333,0,0,-1.3333333,0,384)" />
    <path
       id="path25"
       d="M 343.63636,31.68 V 253.44"
       style="fill:none;stroke:#000000;stroke-width:0.8;stroke-linecap:square;stroke-linejoin:miter;stroke-miterlimit:10;stroke-dasharray:none;stroke-opacity:1"
       transform="matrix(1.3333333,0,0,-1.3333333,0,384)" />
    <path
       id="path26"
       d="M 90,31.68 H 343.63636"
       style="fill:none;stroke:#000000;stroke-width:0.8;stroke-linecap:square;stroke-linejoin:miter;stroke-miterlimit:10;stroke-dasharray:none;stroke-opacity:1"
       transform="matrix(1.3333333,0,0,-1.3333333,0,384)" />
    <path
       id="path27"
       d="M 90,253.44 H 343.63636"
       style="fill:none;stroke:#000000;stroke-width:0.8;stroke-linecap:square;stroke-linejoin:miter;stroke-miterlimit:10;stroke-dasharray:none;stroke-opacity:1"
       transform="matrix(1.3333333,0,0,-1.3333333,0,384)" />
    <path
       id="path28"
       d="M 394.36364,31.68 H 648 V 253.44 H 394.36364 Z"
       style="fill:#ffffff;fill-opacity:1;fill-rule:nonzero;stroke:none"
       transform="matrix(1.3333333,0,0,-1.3333333,0,384)" />
    <path
       id="path29"
       d="m 405.89256,31.68 v -3.5"
       style="fill:#000000;fill-opacity:1;fill-rule:nonzero;stroke:#000000;stroke-width:0.8;stroke-linecap:butt;stroke-linejoin:round;stroke-miterlimit:10;stroke-dasharray:none;stroke-opacity:1"
       transform="matrix(1.3333333,0,0,-1.3333333,0,384)" />
    <text
       id="text29"
       xml:space="preserve"
       transform="matrix(1.3333333,0,0,1.3333333,537.85675,360.34333)"
       style="-inkscape-font-specification:'Times New Roman, ';font-family:'Times New Roman';font-weight:normal;font-style:normal;font-stretch:normal;font-variant:normal"><tspan
         style="font-variant:normal;font-weight:normal;font-size:10px;font-family:'Times New Roman';writing-mode:lr-tb;fill:#000000;fill-opacity:1;fill-rule:nonzero;stroke:none;-inkscape-font-specification:'Times New Roman, ';font-style:normal;font-stretch:normal"
         x="0"
         y="0"
         id="tspan29">0</tspan></text>
    <path
       id="path30"
       d="m 444.32231,31.68 v -3.5"
       style="fill:#000000;fill-opacity:1;fill-rule:nonzero;stroke:#000000;stroke-width:0.8;stroke-linecap:butt;stroke-linejoin:round;stroke-miterlimit:10;stroke-dasharray:none;stroke-opacity:1"
       transform="matrix(1.3333333,0,0,-1.3333333,0,384)" />
    <text
       id="text30"
       xml:space="preserve"
       transform="matrix(1.3333333,0,0,1.3333333,579.09642,360.34333)"
       style="-inkscape-font-specification:'Times New Roman, ';font-family:'Times New Roman';font-weight:normal;font-style:normal;font-stretch:normal;font-variant:normal"><tspan
         style="font-variant:normal;font-weight:normal;font-size:10px;font-family:'Times New Roman';writing-mode:lr-tb;fill:#000000;fill-opacity:1;fill-rule:nonzero;stroke:none;-inkscape-font-specification:'Times New Roman, ';font-style:normal;font-stretch:normal"
         x="0 5 10 15"
         y="0"
         sodipodi:role="line"
         id="tspan30">1000</tspan></text>
    <path
       id="path31"
       d="m 482.75207,31.68 v -3.5"
       style="fill:#000000;fill-opacity:1;fill-rule:nonzero;stroke:#000000;stroke-width:0.8;stroke-linecap:butt;stroke-linejoin:round;stroke-miterlimit:10;stroke-dasharray:none;stroke-opacity:1"
       transform="matrix(1.3333333,0,0,-1.3333333,0,384)" />
    <text
       id="text31"
       xml:space="preserve"
       transform="matrix(1.3333333,0,0,1.3333333,630.33609,360.34333)"
       style="-inkscape-font-specification:'Times New Roman, ';font-family:'Times New Roman';font-weight:normal;font-style:normal;font-stretch:normal;font-variant:normal"><tspan
         style="font-variant:normal;font-weight:normal;font-size:10px;font-family:'Times New Roman';writing-mode:lr-tb;fill:#000000;fill-opacity:1;fill-rule:nonzero;stroke:none;-inkscape-font-specification:'Times New Roman, ';font-style:normal;font-stretch:normal"
         x="0 5 10 15"
         y="0"
         sodipodi:role="line"
         id="tspan31">2000</tspan></text>
    <path
       id="path32"
       d="m 521.18182,31.68 v -3.5"
       style="fill:#000000;fill-opacity:1;fill-rule:nonzero;stroke:#000000;stroke-width:0.8;stroke-linecap:butt;stroke-linejoin:round;stroke-miterlimit:10;stroke-dasharray:none;stroke-opacity:1"
       transform="matrix(1.3333333,0,0,-1.3333333,0,384)" />
    <text
       id="text32"
       xml:space="preserve"
       transform="matrix(1.3333333,0,0,1.3333333,681.57576,360.34333)"
       style="-inkscape-font-specification:'Times New Roman, ';font-family:'Times New Roman';font-weight:normal;font-style:normal;font-stretch:normal;font-variant:normal"><tspan
         style="font-variant:normal;font-weight:normal;font-size:10px;font-family:'Times New Roman';writing-mode:lr-tb;fill:#000000;fill-opacity:1;fill-rule:nonzero;stroke:none;-inkscape-font-specification:'Times New Roman, ';font-style:normal;font-stretch:normal"
         x="0 5 10 15"
         y="0"
         sodipodi:role="line"
         id="tspan32">3000</tspan></text>
    <path
       id="path33"
       d="m 559.61157,31.68 v -3.5"
       style="fill:#000000;fill-opacity:1;fill-rule:nonzero;stroke:#000000;stroke-width:0.8;stroke-linecap:butt;stroke-linejoin:round;stroke-miterlimit:10;stroke-dasharray:none;stroke-opacity:1"
       transform="matrix(1.3333333,0,0,-1.3333333,0,384)" />
    <text
       id="text33"
       xml:space="preserve"
       transform="matrix(1.3333333,0,0,1.3333333,732.81543,360.34333)"
       style="-inkscape-font-specification:'Times New Roman, ';font-family:'Times New Roman';font-weight:normal;font-style:normal;font-stretch:normal;font-variant:normal"><tspan
         style="font-variant:normal;font-weight:normal;font-size:10px;font-family:'Times New Roman';writing-mode:lr-tb;fill:#000000;fill-opacity:1;fill-rule:nonzero;stroke:none;-inkscape-font-specification:'Times New Roman, ';font-style:normal;font-stretch:normal"
         x="0 5 10 15"
         y="0"
         sodipodi:role="line"
         id="tspan33">4000</tspan></text>
    <path
       id="path34"
       d="m 598.04132,31.68 v -3.5"
       style="fill:#000000;fill-opacity:1;fill-rule:nonzero;stroke:#000000;stroke-width:0.8;stroke-linecap:butt;stroke-linejoin:round;stroke-miterlimit:10;stroke-dasharray:none;stroke-opacity:1"
       transform="matrix(1.3333333,0,0,-1.3333333,0,384)" />
    <text
       id="text34"
       xml:space="preserve"
       transform="matrix(1.3333333,0,0,1.3333333,784.0551,360.34333)"
       style="-inkscape-font-specification:'Times New Roman, ';font-family:'Times New Roman';font-weight:normal;font-style:normal;font-stretch:normal;font-variant:normal"><tspan
         style="font-variant:normal;font-weight:normal;font-size:10px;font-family:'Times New Roman';writing-mode:lr-tb;fill:#000000;fill-opacity:1;fill-rule:nonzero;stroke:none;-inkscape-font-specification:'Times New Roman, ';font-style:normal;font-stretch:normal"
         x="0 5 10 15"
         y="0"
         sodipodi:role="line"
         id="tspan34">5000</tspan></text>
    <path
       id="path35"
       d="m 636.47107,31.68 v -3.5"
       style="fill:#000000;fill-opacity:1;fill-rule:nonzero;stroke:#000000;stroke-width:0.8;stroke-linecap:butt;stroke-linejoin:round;stroke-miterlimit:10;stroke-dasharray:none;stroke-opacity:1"
       transform="matrix(1.3333333,0,0,-1.3333333,0,384)" />
    <text
       id="text35"
       xml:space="preserve"
       transform="matrix(1.3333333,0,0,1.3333333,835.29477,360.34333)"
       style="-inkscape-font-specification:'Times New Roman, ';font-family:'Times New Roman';font-weight:normal;font-style:normal;font-stretch:normal;font-variant:normal"><tspan
         style="font-variant:normal;font-weight:normal;font-size:10px;font-family:'Times New Roman';writing-mode:lr-tb;fill:#000000;fill-opacity:1;fill-rule:nonzero;stroke:none;-inkscape-font-specification:'Times New Roman, ';font-style:normal;font-stretch:normal"
         x="0 5 10 15"
         y="0"
         sodipodi:role="line"
         id="tspan35">6000</tspan></text>
    <text
       id="text36"
       xml:space="preserve"
       transform="matrix(1.3333333,0,0,1.3333333,681.08617,377.78083)"
       style="-inkscape-font-specification:'Times New Roman, ';font-family:'Times New Roman';font-weight:normal;font-style:normal;font-stretch:normal;font-variant:normal;font-size:11.00000028px"><tspan
         style="font-variant:normal;font-weight:normal;font-family:'Times New Roman';writing-mode:lr-tb;fill:#000000;fill-opacity:1;fill-rule:nonzero;stroke:none;-inkscape-font-specification:'Times New Roman, ';font-style:normal;font-stretch:normal;font-size:11.00000028px"
         x="0 5.7662501 8.5462503 16.32625"
         y="0"
         sodipodi:role="line"
         id="tspan36">Time</tspan></text>
    <path
       id="path36"
       d="m 394.36364,41.76 h -3.5"
       style="fill:#000000;fill-opacity:1;fill-rule:nonzero;stroke:#000000;stroke-width:0.8;stroke-linecap:butt;stroke-linejoin:round;stroke-miterlimit:10;stroke-dasharray:none;stroke-opacity:1"
       transform="matrix(1.3333333,0,0,-1.3333333,0,384)" />
    <path
       id="path37"
       d="m 394.36364,70.340866 h -3.5"
       style="fill:#000000;fill-opacity:1;fill-rule:nonzero;stroke:#000000;stroke-width:0.8;stroke-linecap:butt;stroke-linejoin:round;stroke-miterlimit:10;stroke-dasharray:none;stroke-opacity:1"
       transform="matrix(1.3333333,0,0,-1.3333333,0,384)" />
    <path
       id="path38"
       d="m 394.36364,98.921731 h -3.5"
       style="fill:#000000;fill-opacity:1;fill-rule:nonzero;stroke:#000000;stroke-width:0.8;stroke-linecap:butt;stroke-linejoin:round;stroke-miterlimit:10;stroke-dasharray:none;stroke-opacity:1"
       transform="matrix(1.3333333,0,0,-1.3333333,0,384)" />
    <path
       id="path39"
       d="m 394.36364,127.5026 h -3.5"
       style="fill:#000000;fill-opacity:1;fill-rule:nonzero;stroke:#000000;stroke-width:0.8;stroke-linecap:butt;stroke-linejoin:round;stroke-miterlimit:10;stroke-dasharray:none;stroke-opacity:1"
       transform="matrix(1.3333333,0,0,-1.3333333,0,384)" />
    <path
       id="path40"
       d="m 394.36364,156.08346 h -3.5"
       style="fill:#000000;fill-opacity:1;fill-rule:nonzero;stroke:#000000;stroke-width:0.8;stroke-linecap:butt;stroke-linejoin:round;stroke-miterlimit:10;stroke-dasharray:none;stroke-opacity:1"
       transform="matrix(1.3333333,0,0,-1.3333333,0,384)" />
    <path
       id="path41"
       d="m 394.36364,184.66433 h -3.5"
       style="fill:#000000;fill-opacity:1;fill-rule:nonzero;stroke:#000000;stroke-width:0.8;stroke-linecap:butt;stroke-linejoin:round;stroke-miterlimit:10;stroke-dasharray:none;stroke-opacity:1"
       transform="matrix(1.3333333,0,0,-1.3333333,0,384)" />
    <path
       id="path42"
       d="m 394.36364,213.24519 h -3.5"
       style="fill:#000000;fill-opacity:1;fill-rule:nonzero;stroke:#000000;stroke-width:0.8;stroke-linecap:butt;stroke-linejoin:round;stroke-miterlimit:10;stroke-dasharray:none;stroke-opacity:1"
       transform="matrix(1.3333333,0,0,-1.3333333,0,384)" />
    <path
       id="path43"
       d="m 394.36364,241.82606 h -3.5"
       style="fill:#000000;fill-opacity:1;fill-rule:nonzero;stroke:#000000;stroke-width:0.8;stroke-linecap:butt;stroke-linejoin:round;stroke-miterlimit:10;stroke-dasharray:none;stroke-opacity:1"
       transform="matrix(1.3333333,0,0,-1.3333333,0,384)" />
    <path
       id="path44"
       d="m 405.89256,41.76 1.26839,20.660412 1.34527,18.293358 1.3837,15.823119 1.42214,13.798231 1.49901,12.41322 1.53745,10.92363 1.61431,9.89032 1.65276,8.77048 1.72963,7.98357 1.76806,7.1256 1.84494,6.51545 1.88337,5.84708 1.96024,5.36635 1.99868,4.83801 2.07555,4.45382 2.15243,4.09979 2.2293,3.77368 2.30617,3.47341 2.42147,3.24556 2.49835,2.98038 2.61366,2.77567 2.76741,2.61249 2.88271,2.41575 3.03645,2.25611 3.22864,2.12134 3.42082,1.98123 3.65143,1.85734 3.92049,1.74301 4.22798,1.63339 4.5739,1.52505 4.95827,1.41585 5.4195,1.31328 5.9576,1.21151 6.61102,1.11296 7.37974,1.01165 8.30221,0.90853 9.4553,0.80583 10.9543,0.70413 12.91455,0.60017 15.64352,0.49608 19.67931,0.39161 26.32877,0.2881 26.05971,0.14345 v 0"
       style="fill:none;stroke:#377eb8;stroke-width:6;stroke-linecap:square;stroke-linejoin:round;stroke-miterlimit:10;stroke-dasharray:none;stroke-opacity:0.5"
       transform="matrix(1.3333333,0,0,-1.3333333,0,384)"
       clip-path="url(#clipPath45)" />
    <path
       id="path46"
       d="m 405.89256,41.76 1.26839,20.660412 1.34527,18.293358 1.3837,15.823119 1.42214,13.798231 1.49901,12.41322 1.53745,10.92363 1.61431,9.89032 1.65276,8.77048 1.72963,7.98357 1.76806,7.1256 1.84494,6.51545 1.88337,5.84708 1.96024,5.36635 1.99868,4.838 2.07555,4.45383 2.15243,4.09979 2.2293,3.77368 2.30617,3.47341 2.42147,3.24556 2.49835,2.98038 2.61366,2.77567 2.76741,2.61248 2.88271,2.41576 3.03645,2.25611 3.22864,2.12134 3.42082,1.98123 3.65143,1.85733 3.92049,1.74301 4.22798,1.63339 4.5739,1.52506 4.95827,1.41585 5.4195,1.31327 5.9576,1.21152 6.61102,1.11296 7.37974,1.01165 8.30221,0.90852 9.4553,0.80583 10.9543,0.70413 12.91455,0.60017 15.64352,0.49609 19.67931,0.3916 26.32877,0.2881 26.05971,0.14345 v 0"
       style="fill:none;stroke:#a65628;stroke-width:2;stroke-linecap:square;stroke-linejoin:round;stroke-miterlimit:10;stroke-dasharray:none;stroke-opacity:1"
       transform="matrix(1.3333333,0,0,-1.3333333,0,384)"
       clip-path="url(#clipPath47)" />
    <path
       id="path48"
       d="M 394.36364,31.68 V 253.44"
       style="fill:none;stroke:#000000;stroke-width:0.8;stroke-linecap:square;stroke-linejoin:miter;stroke-miterlimit:10;stroke-dasharray:none;stroke-opacity:1"
       transform="matrix(1.3333333,0,0,-1.3333333,0,384)" />
    <path
       id="path49"
       d="M 648,31.68 V 253.44"
       style="fill:none;stroke:#000000;stroke-width:0.8;stroke-linecap:square;stroke-linejoin:miter;stroke-miterlimit:10;stroke-dasharray:none;stroke-opacity:1"
       transform="matrix(1.3333333,0,0,-1.3333333,0,384)" />
    <path
       id="path50"
       d="M 394.36364,31.68 H 648"
       style="fill:none;stroke:#000000;stroke-width:0.8;stroke-linecap:square;stroke-linejoin:miter;stroke-miterlimit:10;stroke-dasharray:none;stroke-opacity:1"
       transform="matrix(1.3333333,0,0,-1.3333333,0,384)" />
    <path
       id="path51"
       d="M 394.36364,253.44 H 648"
       style="fill:none;stroke:#000000;stroke-width:0.8;stroke-linecap:square;stroke-linejoin:miter;stroke-miterlimit:10;stroke-dasharray:none;stroke-opacity:1"
       transform="matrix(1.3333333,0,0,-1.3333333,0,384)" />
    <path
       id="path52"
       d="m 164.01562,275.5 h 10 10"
       style="fill:none;stroke:#000000;stroke-width:3;stroke-linecap:butt;stroke-linejoin:round;stroke-miterlimit:10;stroke-dasharray:3, 4.95;stroke-dashoffset:0;stroke-opacity:1"
       transform="matrix(1.3333333,0,0,-1.3333333,0,384)" />
    <text
       id="text52"
       xml:space="preserve"
       transform="matrix(1.3333333,0,0,1.3333333,256.02083,21.333333)"
       style="font-size:11.00000028px"><tspan
         style="font-style:normal;font-variant:normal;font-weight:normal;font-stretch:normal;font-family:'Times New Roman';-inkscape-font-specification:'Times New Roman, ';writing-mode:lr-tb;fill:#000000;fill-opacity:1;fill-rule:nonzero;stroke:none;font-size:11.00000028px"
         x="0 5.5599999 8.3400002 16.120001 21.120001 23.9 28.34 31.120001 33.900002 38.900002 43.900002"
         y="0"
         sodipodi:role="line"
         id="tspan52">Simulations</tspan></text>
    <path
       id="path53"
       d="m 259.8125,275.5 h 10 10"
       style="fill:none;stroke:#000000;stroke-width:3;stroke-linecap:square;stroke-linejoin:round;stroke-miterlimit:10;stroke-dasharray:none;stroke-opacity:1"
       transform="matrix(1.3333333,0,0,-1.3333333,0,384)" />
    <text
       id="text53"
       xml:space="preserve"
       transform="matrix(1.3333333,0,0,1.3333333,383.75,21.333333)"
       style="font-size:11.00000028px"><tspan
         style="font-style:normal;font-variant:normal;font-weight:normal;font-stretch:normal;font-family:'Times New Roman';-inkscape-font-specification:'Times New Roman, ';writing-mode:lr-tb;fill:#000000;fill-opacity:1;fill-rule:nonzero;stroke:none;font-size:11.00000028px"
         x="0 8.8900003 13.33 16.110001 21.110001 26.110001 31.110001 33.610001 38.610001 41.939999 44.439999 52.220001 57.220001 65 69.440002 74.440002 77.220001"
         y="0"
         sodipodi:role="line"
         id="tspan53">Method of moments</tspan></text>
    <path
       id="path54"
       d="m 388.92187,272 h 20 v 7 h -20 z"
       style="fill:#377eb8;fill-opacity:0.5;fill-rule:nonzero;stroke:#377eb8;stroke-width:1;stroke-linecap:butt;stroke-linejoin:miter;stroke-miterlimit:10;stroke-dasharray:none;stroke-opacity:0.5"
       transform="matrix(1.3333333,0,0,-1.3333333,0,384)" />
    <text
       id="text54"
       xml:space="preserve"
       transform="matrix(1.3333333,0,0,1.3333333,555.89583,21.333333)"
       style="font-size:11px"><tspan
         style="font-variant:normal;font-weight:normal;font-size:11px;font-family:Arial;writing-mode:lr-tb;fill:#000000;fill-opacity:1;fill-rule:nonzero;stroke:none"
         x="0 6.1100001 11.11 14.44 18.879999 23.32"
         y="0"
         sodipodi:role="line"
         id="tspan54"><tspan
           style="font-style:normal;font-variant:normal;font-weight:normal;font-stretch:normal;font-size:11px;font-family:'Times New Roman';-inkscape-font-specification:'Times New Roman, '"
           id="tspan56">Three-cell</tspan></tspan></text>
    <path
       id="path55"
       d="m 485.21875,272 h 20 v 7 h -20 z"
       style="fill:#a65628;fill-opacity:1;fill-rule:nonzero;stroke:#a65628;stroke-width:1;stroke-linecap:butt;stroke-linejoin:miter;stroke-miterlimit:10;stroke-dasharray:none;stroke-opacity:1"
       transform="matrix(1.3333333,0,0,-1.3333333,0,384)" />
    <text
       id="text55"
       xml:space="preserve"
       transform="matrix(1.3333333,0,0,1.3333333,684.29167,21.333333)"
       style="font-size:11px"><tspan
         style="font-style:normal;font-variant:normal;font-weight:normal;font-stretch:normal;font-size:11px;font-family:'Times New Roman';-inkscape-font-specification:'Times New Roman, ';writing-mode:lr-tb;fill:#000000;fill-opacity:1;fill-rule:nonzero;stroke:none"
         x="0 5.5599999 8.3400002 13.34 17.780001"
         y="0"
         sodipodi:role="line"
         id="tspan55">Five-cell</tspan></text>
    <text
       xml:space="preserve"
       style="font-style:normal;font-variant:normal;font-weight:normal;font-stretch:normal;font-family:'Times New Roman';-inkscape-font-specification:'Times New Roman, ';fill:#000000;font-size:16px"
       x="435.95163"
       y="326.56155"
       id="text57"><tspan
         sodipodi:role="line"
         id="tspan57"
         x="435.95163"
         y="326.56155">A)</tspan></text>
    <text
       xml:space="preserve"
       style="font-style:normal;font-variant:normal;font-weight:normal;font-stretch:normal;font-size:16px;font-family:'Times New Roman';-inkscape-font-specification:'Times New Roman, ';fill:#000000"
       x="840.26172"
       y="329.73975"
       id="text57-2"><tspan
         sodipodi:role="line"
         id="tspan57-1"
         x="840.26172"
         y="329.73975">B)</tspan></text>
    <path
       style="fill:#666666;fill-opacity:1;stroke:#828282;stroke-width:1.305;stroke-dasharray:none;stroke-opacity:1"
       d="M 458.74086,341.68183 580.59541,336.2948"
       id="path15"
       sodipodi:nodetypes="cc" />
    <path
       style="fill:#666666;fill-opacity:1;stroke:#828282;stroke-width:1.305;stroke-dasharray:none;stroke-opacity:1"
       d="M 458.63647,46.096806 580.79265,115.26991"
       id="path15-4"
       sodipodi:nodetypes="cc" />
    <rect
       style="fill:none;stroke:#828282;stroke-width:1.416;stroke-dasharray:none;stroke-opacity:1"
       id="rect1"
       width="46.520893"
       height="220.38617"
       x="533.61292"
       y="115.44507" />
  </g>
</svg>
